<svg id="svg" version="1.1" xmlns="http://www.w3.org/2000/svg" xmlns:xlink="http://www.w3.org/1999/xlink" width="400" height="244.30769230769232" viewBox="0, 0, 400,244.30769230769232"><g id="svgg"><path id="path0" d="M200.122 61.214 L 200.122 64.516 206.659 64.451 L 213.195 64.386 213.263 61.148 L 213.331 57.911 206.727 57.911 L 200.122 57.911 200.122 61.214 M180.086 67.025 C 180.086 68.700,180.188 69.652,180.391 69.871 C 180.635 70.134,180.635 70.165,180.391 70.028 C 180.182 69.909,180.086 70.050,180.086 70.473 L 180.086 71.092 176.726 71.160 L 173.366 71.228 173.326 74.404 L 173.286 77.581 166.667 77.646 L 160.049 77.711 160.049 81.006 L 160.049 84.301 166.646 84.301 L 173.244 84.301 173.244 100.320 C 173.244 111.906,173.318 116.293,173.512 116.173 C 173.694 116.061,173.688 116.181,173.494 116.544 C 172.888 117.675,173.219 117.796,176.721 117.722 L 179.963 117.654 180.011 113.745 C 180.037 111.594,180.064 101.128,180.072 90.487 L 180.086 71.138 180.757 71.061 C 181.127 71.018,184.096 71.015,187.355 71.053 L 193.280 71.122 193.280 76.930 C 193.280 81.237,193.359 82.822,193.586 83.066 C 193.830 83.329,193.830 83.360,193.586 83.222 C 193.345 83.086,193.280 84.446,193.280 89.676 C 193.280 94.432,193.356 96.256,193.549 96.136 C 193.742 96.017,193.742 96.113,193.546 96.477 C 193.357 96.832,193.294 100.096,193.339 107.319 L 193.403 117.654 196.640 117.722 L 199.878 117.791 199.885 105.138 C 199.891 92.102,199.890 65.017,199.882 64.692 C 199.880 64.591,195.425 64.508,189.982 64.508 L 180.086 64.508 180.086 67.025 M213.317 70.403 C 213.317 75.922,213.344 76.276,213.733 75.962 C 214.125 75.646,214.125 75.661,213.733 76.230 C 213.190 77.020,213.085 102.523,213.622 103.102 C 213.867 103.366,213.867 103.397,213.622 103.259 C 213.381 103.123,213.317 104.627,213.317 110.432 L 213.317 117.776 216.616 117.776 L 219.914 117.776 219.914 94.445 L 219.914 71.114 226.573 71.049 C 233.069 70.985,233.230 70.972,233.173 70.495 C 233.140 70.226,233.041 68.769,232.952 67.257 L 232.790 64.508 223.054 64.508 L 213.317 64.508 213.317 70.403 M233.354 97.740 L 233.354 124.374 213.317 124.374 L 193.280 124.374 193.280 134.392 L 193.280 144.411 196.572 144.411 L 199.864 144.411 199.932 147.648 L 200.000 150.886 213.378 150.949 L 226.756 151.012 226.756 147.711 L 226.756 144.411 213.331 144.411 L 199.906 144.411 199.886 138.092 C 199.875 134.617,199.936 131.593,200.020 131.373 C 200.162 131.005,201.841 130.971,220.002 130.971 L 239.829 130.971 239.831 101.038 L 239.832 71.106 236.593 71.106 L 233.354 71.106 233.354 97.740 M153.427 111.729 C 153.417 126.680,153.408 139.188,153.407 139.524 C 153.406 139.859,153.415 147.089,153.425 155.589 L 153.445 171.045 156.747 171.045 L 160.049 171.045 160.049 177.676 L 160.049 184.308 161.332 184.153 C 162.037 184.069,163.522 183.998,164.630 183.997 L 166.646 183.995 166.646 177.520 L 166.646 171.045 163.348 171.045 L 160.049 171.045 160.042 153.146 C 160.039 143.302,160.041 123.839,160.048 109.896 L 160.060 84.545 156.752 84.545 L 153.444 84.545 153.427 111.729 M239.951 147.716 L 239.951 164.217 243.189 164.149 L 246.426 164.081 246.459 158.338 C 246.531 145.635,246.588 131.809,246.569 131.521 C 246.554 131.293,245.715 131.216,243.250 131.216 L 239.951 131.216 239.951 147.716 M233.353 170.861 L 233.353 177.276 236.652 177.201 L 239.951 177.127 239.951 170.787 L 239.951 164.447 236.652 164.447 L 233.354 164.447 233.353 170.861 M226.756 180.941 L 226.756 184.239 229.933 184.239 L 233.109 184.239 233.109 180.941 L 233.109 177.642 229.933 177.642 L 226.756 177.642 226.756 180.941 M167.050 186.836 C 166.963 188.272,166.891 191.503,166.891 194.016 L 166.891 198.585 168.540 198.741 C 169.447 198.827,170.878 198.898,171.720 198.899 L 173.251 198.900 173.186 191.631 L 173.122 184.362 170.166 184.293 L 167.210 184.225 167.050 186.836 M220.033 184.447 C 219.968 184.512,219.914 187.885,219.914 191.942 L 219.914 199.318 221.564 199.474 C 222.471 199.560,224.012 199.631,224.988 199.632 L 226.763 199.633 226.699 191.998 L 226.634 184.362 223.393 184.345 C 221.610 184.336,220.098 184.381,220.033 184.447 " stroke="none" fill="#360d22" fill-rule="evenodd"></path><path id="path1" d="M0.000 122.175 L 0.000 244.349 200.000 244.349 L 400.000 244.349 400.000 122.175 L 400.000 0.000 200.000 0.000 L 0.000 0.000 0.000 122.175 M213.507 61.023 L 213.576 64.258 223.281 64.322 L 232.987 64.386 233.156 66.952 C 233.249 68.363,233.391 69.875,233.472 70.312 L 233.620 71.106 236.924 71.106 L 240.228 71.106 240.091 80.208 C 239.691 106.722,239.667 130.233,240.039 130.606 C 240.327 130.893,241.089 130.971,243.599 130.971 L 246.793 130.971 246.793 142.172 C 246.793 148.332,246.720 155.864,246.632 158.910 L 246.471 164.447 243.337 164.447 L 240.204 164.447 240.138 170.861 L 240.073 177.276 236.862 177.343 C 233.058 177.424,233.362 177.065,233.357 181.483 L 233.354 184.470 230.116 184.538 L 226.878 184.606 226.814 192.275 L 226.749 199.943 222.904 199.806 C 220.789 199.730,211.252 199.543,201.710 199.391 C 192.169 199.238,180.348 199.038,175.443 198.946 L 166.524 198.778 166.524 196.090 C 166.524 194.612,166.609 191.313,166.712 188.760 L 166.899 184.117 163.657 184.294 C 161.874 184.392,160.278 184.423,160.110 184.363 C 159.876 184.280,159.805 182.739,159.805 177.779 L 159.805 171.303 156.567 171.235 L 153.329 171.167 153.268 127.734 L 153.206 84.301 156.505 84.301 L 159.805 84.301 159.805 81.266 C 159.805 79.597,159.871 78.058,159.953 77.845 C 160.083 77.506,160.906 77.459,166.672 77.459 L 173.244 77.459 173.244 74.282 L 173.244 71.106 176.542 71.106 L 179.841 71.106 179.841 67.685 L 179.841 64.264 189.859 64.264 L 199.878 64.264 199.878 60.961 L 199.878 57.659 206.659 57.724 L 213.439 57.789 213.507 61.023 " stroke="none" fill="#fbfbfb" fill-rule="evenodd"></path><path id="path2" d="M199.881 64.386 C 199.878 64.865,199.999 64.872,205.803 64.753 L 211.729 64.631 205.998 64.565 C 201.788 64.517,200.217 64.419,200.076 64.198 C 199.948 63.996,199.884 64.057,199.881 64.386 M212.462 64.508 L 211.729 64.695 212.401 64.724 L 213.073 64.753 213.077 70.678 C 213.079 73.937,213.104 82.486,213.132 89.676 L 213.182 102.749 213.311 89.653 C 213.420 78.517,213.494 76.487,213.806 76.091 C 214.146 75.659,214.141 75.651,213.736 75.969 C 213.320 76.295,213.303 76.039,213.370 70.287 C 213.408 66.974,213.384 64.277,213.317 64.293 C 213.250 64.309,212.865 64.406,212.462 64.508 M199.991 78.070 C 199.991 84.655,200.023 87.314,200.061 83.978 C 200.099 80.643,200.099 75.255,200.061 72.005 C 200.022 68.755,199.991 71.484,199.991 78.070 M233.109 94.471 C 233.109 113.320,233.048 118.034,232.804 117.847 C 232.636 117.719,231.739 117.591,230.810 117.563 C 229.881 117.535,229.029 117.455,228.916 117.386 C 228.803 117.316,228.711 117.479,228.711 117.748 C 228.711 118.016,228.821 118.304,228.955 118.387 C 229.090 118.470,229.200 118.631,229.200 118.744 C 229.200 118.857,228.881 118.652,228.491 118.288 L 227.782 117.626 223.972 117.640 L 220.162 117.654 220.098 94.319 L 220.034 70.984 219.974 94.380 L 219.914 117.776 216.616 117.776 L 213.317 117.776 213.317 110.432 C 213.317 104.942,213.388 103.131,213.599 103.261 C 213.775 103.370,213.815 103.328,213.704 103.149 C 213.192 102.320,213.073 103.681,213.073 110.338 L 213.073 117.532 207.514 117.551 C 204.456 117.561,201.739 117.610,201.474 117.659 C 201.210 117.708,200.853 117.631,200.680 117.488 C 200.508 117.345,200.341 117.324,200.309 117.441 C 200.277 117.558,200.193 111.991,200.122 105.070 L 199.993 92.486 199.936 105.131 L 199.878 117.776 196.713 117.776 C 193.957 117.776,193.517 117.721,193.300 117.349 C 193.075 116.963,193.050 116.961,193.043 117.328 C 193.039 117.552,192.899 117.786,192.731 117.848 C 192.486 117.937,192.486 118.024,192.731 118.283 C 193.112 118.687,193.149 122.882,192.778 123.694 C 192.530 124.241,192.420 124.260,189.541 124.256 L 186.561 124.252 186.493 137.202 C 186.456 144.325,186.486 150.400,186.559 150.703 L 186.692 151.252 192.414 151.252 L 198.135 151.252 198.226 151.924 L 198.317 152.596 198.603 151.924 C 198.853 151.335,199.017 151.255,199.933 151.272 C 200.923 151.291,200.945 151.307,200.362 151.578 C 199.725 151.873,199.276 156.495,199.808 157.277 C 200.083 157.681,200.642 157.695,214.366 157.648 L 226.778 157.605 226.782 154.490 C 226.784 152.776,226.818 150.880,226.857 150.275 C 226.898 149.650,226.885 149.572,226.828 150.094 L 226.728 151.012 213.364 150.949 L 200.000 150.886 199.930 148.212 C 199.890 146.661,199.742 145.397,199.579 145.201 C 198.987 144.487,200.204 144.418,213.360 144.414 C 225.875 144.411,226.728 144.438,226.846 144.838 C 226.944 145.170,226.961 145.157,226.922 144.777 C 226.873 144.296,226.669 144.287,213.515 144.225 C 201.054 144.166,200.150 144.133,200.046 143.736 C 199.963 143.419,199.927 143.450,199.906 143.861 C 199.878 144.402,199.829 144.411,196.579 144.411 L 193.280 144.411 193.280 134.413 C 193.280 126.850,193.209 124.391,192.987 124.317 C 192.759 124.241,192.759 124.179,192.987 124.038 C 193.148 123.938,193.280 123.973,193.280 124.115 C 193.280 124.295,199.321 124.373,213.134 124.370 C 224.053 124.368,232.845 124.276,232.670 124.165 C 232.415 124.004,232.423 123.906,232.712 123.666 C 233.009 123.420,233.091 123.467,233.179 123.932 C 233.239 124.242,233.302 112.428,233.320 97.679 C 233.339 82.929,233.299 70.861,233.232 70.861 C 233.164 70.861,233.109 81.486,233.109 94.471 M193.140 77.214 C 193.140 80.104,193.175 81.286,193.218 79.841 C 193.262 78.396,193.262 76.032,193.218 74.588 C 193.175 73.143,193.140 74.325,193.140 77.214 M239.792 82.101 C 239.792 83.244,239.834 83.711,239.886 83.140 C 239.937 82.569,239.937 81.634,239.886 81.063 C 239.834 80.492,239.792 80.959,239.792 82.101 M193.133 83.178 C 193.061 83.367,193.047 83.889,193.102 84.338 C 193.191 85.065,193.207 85.039,193.241 84.103 C 193.268 83.376,193.368 83.104,193.562 83.224 C 193.737 83.332,193.778 83.291,193.670 83.117 C 193.440 82.744,193.293 82.761,193.133 83.178 M162.452 84.618 C 168.353 84.772,171.672 84.768,172.348 84.605 C 173.080 84.428,170.580 84.363,163.470 84.373 L 153.574 84.386 162.452 84.618 M153.324 106.903 C 153.324 119.133,153.354 124.100,153.390 117.941 C 153.427 111.783,153.427 101.777,153.390 95.705 C 153.354 89.634,153.324 94.673,153.324 106.903 M193.139 90.043 C 193.138 92.731,193.174 93.864,193.218 92.560 C 193.262 91.257,193.262 89.058,193.218 87.673 C 193.175 86.289,193.139 87.355,193.139 90.043 M193.147 107.636 C 193.147 112.743,193.179 114.867,193.219 112.356 C 193.259 109.845,193.259 105.666,193.219 103.070 C 193.179 100.475,193.147 102.529,193.147 107.636 M173.244 117.838 C 173.244 117.938,174.783 118.021,176.665 118.021 C 178.546 118.021,180.086 117.938,180.086 117.838 C 180.086 117.737,178.546 117.654,176.665 117.654 C 174.783 117.654,173.244 117.737,173.244 117.838 M160.293 123.626 C 160.293 123.903,160.403 124.130,160.538 124.130 C 160.672 124.130,160.782 123.971,160.782 123.777 C 160.782 123.584,160.672 123.357,160.538 123.274 C 160.403 123.191,160.293 123.350,160.293 123.626 M153.269 131.827 C 153.271 132.364,153.321 132.555,153.380 132.251 C 153.438 131.947,153.436 131.507,153.375 131.274 C 153.314 131.040,153.266 131.289,153.269 131.827 M210.202 131.154 C 215.812 131.191,224.994 131.191,230.605 131.154 C 236.216 131.118,231.625 131.088,220.403 131.088 C 209.181 131.088,204.591 131.118,210.202 131.154 M199.983 137.324 C 199.983 140.617,200.018 141.964,200.060 140.318 C 200.103 138.671,200.103 135.977,200.060 134.331 C 200.018 132.685,199.983 134.032,199.983 137.324 M246.629 134.270 C 246.630 135.211,246.674 135.566,246.727 135.059 C 246.780 134.552,246.779 133.782,246.725 133.348 C 246.671 132.914,246.628 133.329,246.629 134.270 M153.274 138.302 C 153.274 138.907,153.321 139.154,153.380 138.852 C 153.438 138.549,153.438 138.054,153.380 137.752 C 153.321 137.450,153.274 137.697,153.274 138.302 M246.647 145.144 C 246.647 147.227,246.684 148.079,246.730 147.037 C 246.776 145.996,246.776 144.291,246.730 143.250 C 246.684 142.208,246.647 143.060,246.647 145.144 M153.322 156.506 C 153.322 164.435,153.353 167.643,153.390 163.636 C 153.428 159.628,153.428 153.140,153.390 149.219 C 153.352 145.298,153.322 148.577,153.322 156.506 M226.813 146.121 C 226.813 146.591,226.863 146.784,226.925 146.549 C 226.986 146.313,226.986 145.929,226.925 145.693 C 226.863 145.458,226.813 145.651,226.813 146.121 M246.366 153.574 C 246.369 154.111,246.419 154.302,246.477 153.998 C 246.535 153.694,246.533 153.255,246.472 153.021 C 246.411 152.787,246.363 153.036,246.366 153.574 M235.236 157.554 L 233.087 157.625 233.101 160.242 C 233.109 161.681,233.118 164.754,233.121 167.071 L 233.126 171.283 232.568 171.082 C 231.648 170.751,229.715 170.945,229.189 171.421 C 228.662 171.898,228.577 171.752,228.962 171.032 C 229.191 170.604,229.158 170.584,228.579 170.804 C 228.230 170.937,227.682 170.980,227.361 170.899 C 226.886 170.780,226.758 170.859,226.674 171.326 C 226.523 172.166,226.542 173.244,226.708 173.244 C 226.787 173.244,227.183 172.941,227.589 172.572 C 227.994 172.202,228.183 172.087,228.009 172.317 C 227.834 172.546,227.764 172.851,227.853 172.995 C 227.942 173.138,227.886 173.226,227.730 173.189 C 227.112 173.043,226.473 174.353,226.460 175.790 C 226.445 177.410,225.943 177.803,224.234 177.534 C 223.341 177.393,223.225 177.458,221.607 179.020 L 219.914 180.654 219.914 182.510 L 219.914 184.365 218.805 184.277 C 216.572 184.099,216.284 184.265,212.873 187.699 C 210.016 190.574,208.769 192.387,210.464 191.200 C 211.075 190.772,211.362 190.739,211.362 191.096 C 211.362 191.238,211.254 191.287,211.121 191.205 C 210.976 191.116,210.945 191.228,211.043 191.484 C 211.144 191.747,211.245 191.799,211.305 191.619 C 211.359 191.457,211.711 191.326,212.087 191.326 C 212.995 191.326,213.065 191.655,213.069 195.907 L 213.073 199.389 216.371 199.389 L 219.670 199.389 219.670 192.097 C 219.670 185.241,219.698 184.779,220.135 184.384 C 220.439 184.108,220.655 184.053,220.760 184.224 C 220.848 184.367,221.031 184.484,221.165 184.484 C 221.299 184.484,221.341 184.374,221.258 184.239 C 221.161 184.082,222.070 183.995,223.810 183.995 C 225.448 183.995,226.512 184.091,226.512 184.239 C 226.512 184.374,226.814 184.469,227.184 184.451 C 227.760 184.422,227.777 184.402,227.306 184.311 C 226.768 184.208,226.756 184.133,226.756 180.924 L 226.756 177.642 229.923 177.642 L 233.090 177.642 233.172 179.780 C 233.217 180.956,233.276 177.987,233.303 173.183 L 233.354 164.447 239.815 164.447 C 243.368 164.447,246.326 164.365,246.389 164.264 C 246.451 164.163,244.917 164.102,242.980 164.129 C 239.741 164.174,239.475 164.144,239.662 163.763 C 239.927 163.220,240.025 158.044,239.776 157.728 C 239.574 157.470,238.746 157.438,235.236 157.554 M231.814 163.396 C 231.464 163.487,231.432 163.582,231.660 163.857 C 231.988 164.252,232.865 164.326,232.865 163.958 C 232.865 163.824,232.694 163.714,232.484 163.714 C 232.275 163.714,232.171 163.604,232.254 163.470 C 232.337 163.335,232.371 163.238,232.330 163.254 C 232.288 163.269,232.056 163.334,231.814 163.396 M160.253 164.520 C 160.124 164.762,160.043 166.329,160.072 168.002 L 160.125 171.045 163.386 171.045 L 166.646 171.045 166.663 177.581 C 166.673 181.176,166.764 183.905,166.865 183.646 C 167.030 183.225,167.066 183.219,167.207 183.585 C 167.341 183.934,167.759 183.995,170.011 183.995 C 173.535 183.995,173.244 183.309,173.244 191.619 L 173.244 198.656 176.787 198.656 L 180.330 198.656 180.330 194.991 C 180.330 191.357,180.335 191.325,180.880 191.312 C 181.182 191.305,182.561 191.277,183.943 191.251 C 186.969 191.194,186.971 191.191,186.876 188.474 C 186.814 186.736,186.726 186.393,186.194 185.823 C 185.158 184.714,184.188 184.139,183.444 184.196 C 182.956 184.233,182.793 184.161,182.916 183.963 C 183.022 183.791,182.988 183.740,182.832 183.836 C 182.373 184.120,174.710 184.244,174.710 183.967 C 174.710 183.829,174.542 183.884,174.336 184.089 C 174.120 184.306,173.786 184.395,173.542 184.301 C 173.195 184.168,173.228 184.115,173.732 183.995 C 174.231 183.877,174.267 183.821,173.929 183.691 C 173.563 183.551,173.527 183.200,173.620 180.737 C 173.755 177.203,173.916 177.348,169.963 177.445 L 166.890 177.520 166.890 174.146 C 166.890 171.958,166.977 170.825,167.135 170.922 C 167.479 171.135,167.441 170.470,167.089 170.119 C 166.906 169.936,166.824 169.215,166.868 168.176 C 166.907 167.268,166.955 166.029,166.976 165.425 L 167.013 164.325 163.750 164.203 C 160.786 164.092,160.467 164.121,160.253 164.520 M220.978 177.575 C 219.880 177.675,219.627 178.041,219.850 179.206 C 220.015 180.067,220.179 180.016,221.349 178.747 C 222.339 177.673,222.540 177.355,222.175 177.440 C 222.074 177.464,221.535 177.525,220.978 177.575 M201.100 184.215 L 200.000 184.362 199.837 186.805 C 199.666 189.379,199.775 190.745,200.172 190.990 C 200.558 191.229,208.623 191.134,209.068 190.885 C 209.611 190.581,215.011 185.215,215.281 184.711 C 215.610 184.096,204.822 183.719,201.100 184.215 M185.461 184.446 C 185.461 184.813,186.400 185.514,186.668 185.348 C 187.072 185.099,186.508 184.239,185.941 184.239 C 185.677 184.239,185.461 184.332,185.461 184.446 M166.757 195.662 L 166.768 198.778 167.990 198.803 L 169.212 198.828 168.059 198.729 L 166.905 198.630 166.825 195.588 L 166.746 192.547 166.757 195.662 M220.586 199.562 C 220.889 199.620,221.384 199.620,221.686 199.562 C 221.988 199.503,221.741 199.456,221.136 199.456 C 220.531 199.456,220.284 199.503,220.586 199.562 " stroke="none" fill="#eca064" fill-rule="evenodd"></path><path id="path3" d="M199.984 57.986 C 199.917 58.162,199.897 59.619,199.939 61.224 L 200.017 64.142 200.070 61.030 L 200.122 57.919 206.781 57.850 L 213.439 57.780 206.773 57.723 C 201.466 57.678,200.082 57.732,199.984 57.986 M179.946 64.588 C 179.878 64.766,179.858 65.948,179.903 67.214 L 179.984 69.517 180.035 67.016 L 180.086 64.514 190.043 64.447 L 200.000 64.380 190.035 64.322 C 181.947 64.275,180.047 64.325,179.946 64.588 M216.432 64.446 C 218.079 64.489,220.773 64.489,222.419 64.446 C 224.065 64.404,222.718 64.370,219.426 64.370 C 216.133 64.370,214.786 64.404,216.432 64.446 M227.306 64.446 C 228.348 64.491,230.052 64.491,231.093 64.446 C 232.135 64.400,231.283 64.362,229.200 64.362 C 227.117 64.362,226.265 64.400,227.306 64.446 M205.925 64.696 L 200.122 64.761 200.122 77.111 C 200.122 85.414,200.204 89.410,200.371 89.307 C 200.507 89.223,200.554 89.049,200.475 88.920 C 200.395 88.792,200.441 88.717,200.577 88.754 C 200.713 88.791,203.608 86.050,207.010 82.662 L 213.195 76.504 213.129 70.655 L 213.064 64.807 212.396 64.719 C 212.029 64.670,209.117 64.660,205.925 64.696 M232.943 66.219 C 232.943 67.092,232.988 67.450,233.042 67.013 C 233.096 66.576,233.096 65.861,233.042 65.425 C 232.988 64.988,232.943 65.345,232.943 66.219 M179.993 70.861 C 180.041 71.332,180.081 80.217,180.083 90.607 C 180.085 103.340,180.166 109.447,180.334 109.344 C 180.470 109.259,180.519 109.088,180.442 108.963 C 180.364 108.838,180.527 108.735,180.804 108.735 C 181.081 108.735,181.307 108.648,181.307 108.541 C 181.307 108.278,192.778 96.874,192.990 96.925 C 193.083 96.948,193.136 91.175,193.109 84.097 L 193.060 71.228 187.400 71.162 L 181.740 71.097 186.838 76.200 C 192.464 81.832,193.192 82.590,192.971 82.590 C 192.888 82.590,190.220 80.006,187.042 76.848 C 182.800 72.633,181.110 71.106,180.690 71.106 C 180.291 71.106,180.086 70.939,180.012 70.556 C 179.953 70.254,179.945 70.391,179.993 70.861 M220.159 90.291 L 220.159 109.476 223.274 112.624 C 227.337 116.730,228.426 117.892,227.978 117.648 C 227.776 117.539,227.941 117.772,228.345 118.167 C 228.748 118.562,229.125 118.854,229.183 118.816 C 229.242 118.777,229.159 118.616,229.000 118.457 C 228.674 118.130,228.600 117.190,228.916 117.386 C 229.029 117.455,229.881 117.535,230.810 117.563 C 231.739 117.591,232.636 117.719,232.804 117.847 C 233.048 118.034,233.109 113.345,233.109 94.593 L 233.109 71.106 226.634 71.106 L 220.159 71.106 220.159 90.291 M212.553 77.459 C 212.537 77.593,212.509 77.841,212.492 78.009 C 212.476 78.177,212.321 78.314,212.148 78.314 C 211.860 78.314,204.017 85.949,202.321 87.882 C 201.918 88.340,201.588 88.666,201.588 88.606 C 201.588 88.546,201.231 88.844,200.794 89.270 L 200.000 90.043 200.065 103.799 C 200.104 112.033,200.220 117.501,200.354 117.418 C 200.477 117.342,200.645 117.390,200.728 117.525 C 200.812 117.659,201.122 117.724,201.417 117.669 C 201.713 117.614,204.453 117.560,207.507 117.550 L 213.059 117.532 213.127 110.141 C 213.182 104.102,213.134 102.710,212.861 102.538 C 212.481 102.297,201.156 90.997,200.642 90.346 C 199.646 89.083,201.184 90.524,206.705 96.029 C 210.075 99.389,212.886 102.138,212.952 102.138 C 213.019 102.138,213.073 96.530,213.073 89.676 C 213.073 81.531,212.988 77.214,212.828 77.214 C 212.694 77.214,212.570 77.324,212.553 77.459 M239.817 92.608 C 239.817 97.379,239.850 99.331,239.890 96.946 C 239.930 94.560,239.930 90.657,239.890 88.271 C 239.850 85.886,239.817 87.838,239.817 92.608 M160.059 124.734 C 160.063 147.611,160.158 164.656,160.279 164.447 C 160.458 164.140,161.022 164.101,163.753 164.203 L 167.013 164.325 166.976 165.425 C 166.955 166.029,166.907 167.268,166.868 168.176 C 166.824 169.215,166.906 169.936,167.089 170.119 C 167.441 170.470,167.479 171.135,167.135 170.922 C 166.977 170.825,166.890 171.958,166.890 174.146 L 166.890 177.520 169.963 177.445 C 173.916 177.348,173.755 177.203,173.620 180.737 C 173.527 183.200,173.563 183.551,173.929 183.691 C 174.267 183.821,174.231 183.877,173.732 183.995 C 173.228 184.115,173.195 184.168,173.542 184.301 C 173.786 184.395,174.120 184.306,174.336 184.089 C 174.542 183.884,174.710 183.829,174.710 183.967 C 174.710 184.244,182.373 184.120,182.832 183.836 C 182.988 183.740,183.022 183.791,182.916 183.963 C 182.793 184.161,182.956 184.233,183.444 184.196 C 184.188 184.139,185.158 184.714,186.194 185.823 C 186.726 186.393,186.814 186.736,186.876 188.474 C 186.971 191.191,186.969 191.194,183.943 191.251 C 182.561 191.277,181.182 191.305,180.880 191.312 C 180.335 191.325,180.330 191.358,180.330 194.962 L 180.330 198.599 180.976 198.723 C 181.331 198.790,183.777 198.864,186.412 198.887 C 189.047 198.909,192.929 198.976,195.038 199.035 C 197.147 199.095,198.926 199.056,198.992 198.950 C 199.058 198.843,196.370 196.021,193.019 192.677 C 189.669 189.334,186.927 186.496,186.927 186.370 C 186.927 186.245,189.319 188.541,192.242 191.473 C 198.580 197.831,199.998 199.145,200.524 199.145 C 200.743 199.145,202.668 197.413,204.802 195.296 C 206.937 193.180,208.819 191.405,208.984 191.352 C 209.150 191.300,207.636 192.924,205.620 194.962 C 203.604 197.000,201.924 198.758,201.886 198.869 C 201.789 199.152,205.210 199.386,209.469 199.388 L 213.073 199.389 213.069 195.907 C 213.065 191.655,212.995 191.326,212.087 191.326 C 211.711 191.326,211.359 191.457,211.305 191.619 C 211.245 191.799,211.144 191.747,211.043 191.484 C 210.945 191.228,210.976 191.116,211.121 191.205 C 211.254 191.287,211.362 191.238,211.362 191.096 C 211.362 190.739,211.075 190.772,210.464 191.200 C 210.004 191.522,209.930 191.521,209.802 191.187 C 209.717 190.968,209.760 190.875,209.905 190.965 C 210.041 191.049,210.122 191.001,210.085 190.859 C 210.049 190.717,211.376 189.227,213.035 187.549 C 216.271 184.275,216.580 184.100,218.805 184.277 L 219.914 184.365 219.914 182.510 L 219.914 180.654 221.607 179.020 C 223.225 177.458,223.341 177.393,224.234 177.534 C 225.612 177.751,226.598 177.307,226.451 176.535 C 226.387 176.200,226.417 175.475,226.517 174.924 L 226.701 173.922 224.951 175.660 C 223.989 176.616,223.097 177.398,222.969 177.398 C 222.841 177.398,223.605 176.524,224.667 175.455 C 225.729 174.387,226.676 173.561,226.772 173.620 C 226.867 173.679,227.080 173.565,227.245 173.366 C 227.410 173.167,227.659 173.076,227.799 173.162 C 227.950 173.255,227.980 173.200,227.873 173.026 C 227.773 172.865,227.834 172.546,228.009 172.317 C 228.183 172.087,227.994 172.202,227.589 172.572 C 226.671 173.409,226.563 173.409,226.567 172.572 C 226.575 171.052,226.695 170.864,227.669 170.839 C 229.259 170.797,229.456 170.734,230.018 170.088 C 230.739 169.259,231.643 168.482,231.643 168.691 C 231.643 168.782,231.201 169.336,230.661 169.922 L 229.678 170.988 230.844 170.935 C 231.485 170.905,232.261 170.972,232.568 171.082 L 233.126 171.283 233.121 167.071 C 233.118 164.754,233.109 161.677,233.101 160.232 L 233.086 157.605 235.114 157.591 C 236.229 157.583,237.718 157.555,238.424 157.530 C 239.130 157.504,239.754 157.593,239.812 157.728 C 239.869 157.862,239.921 151.954,239.926 144.599 L 239.935 131.227 220.566 131.219 C 201.371 131.210,201.193 131.215,200.660 131.711 C 200.134 132.201,200.122 132.345,200.122 138.187 L 200.122 144.162 213.500 144.225 L 226.878 144.288 226.838 147.831 C 226.815 149.780,226.793 152.776,226.787 154.490 L 226.778 157.605 214.366 157.648 C 200.642 157.695,200.083 157.681,199.808 157.277 C 199.276 156.495,199.725 151.873,200.362 151.578 C 200.945 151.307,200.923 151.291,199.933 151.272 C 199.017 151.255,198.853 151.335,198.603 151.924 L 198.317 152.596 198.226 151.924 L 198.135 151.252 192.414 151.252 L 186.692 151.252 186.559 150.703 C 186.486 150.400,186.456 144.325,186.493 137.202 L 186.561 124.252 189.541 124.256 C 192.420 124.260,192.530 124.241,192.778 123.694 C 193.148 122.884,193.112 118.683,192.733 118.304 C 192.491 118.062,192.492 117.962,192.738 117.810 C 193.013 117.640,193.110 111.192,193.039 97.763 C 193.036 97.221,192.939 97.268,191.784 98.374 C 190.450 99.651,189.907 100.197,189.457 100.716 C 189.303 100.893,187.469 102.727,185.382 104.792 C 182.741 107.404,181.626 108.666,181.715 108.945 C 181.806 109.233,181.779 109.260,181.620 109.039 C 181.453 108.808,181.252 108.898,180.807 109.406 C 180.081 110.232,180.152 109.731,180.116 114.233 L 180.086 118.021 176.682 118.021 C 173.338 118.021,173.276 118.011,173.200 117.471 C 173.131 116.987,172.925 117.126,171.483 118.632 C 170.582 119.572,169.724 120.452,169.577 120.586 C 169.430 120.721,168.875 121.256,168.345 121.777 C 167.814 122.297,167.379 122.625,167.379 122.505 C 167.379 122.386,168.528 121.143,169.932 119.744 C 171.336 118.345,172.434 117.117,172.372 117.017 C 172.310 116.916,172.481 116.764,172.751 116.678 C 173.238 116.523,173.244 116.346,173.243 100.594 L 173.243 84.667 166.647 84.661 L 160.051 84.655 160.059 124.734 M220.185 114.050 L 220.242 117.654 223.805 117.618 C 225.764 117.599,227.454 117.571,227.559 117.557 C 227.822 117.523,220.665 110.446,220.366 110.446 C 220.219 110.446,220.150 111.828,220.185 114.050 M160.782 123.777 C 160.782 123.971,160.672 124.130,160.538 124.130 C 160.403 124.130,160.293 123.903,160.293 123.626 C 160.293 123.350,160.403 123.191,160.538 123.274 C 160.672 123.357,160.782 123.584,160.782 123.777 M232.644 123.734 C 232.428 123.995,232.449 124.105,232.737 124.215 C 232.993 124.314,233.109 124.208,233.109 123.877 C 233.109 123.308,233.021 123.281,232.644 123.734 M153.274 129.994 C 153.274 130.599,153.321 130.846,153.380 130.544 C 153.438 130.241,153.438 129.746,153.380 129.444 C 153.321 129.142,153.274 129.389,153.274 129.994 M242.222 131.153 C 243.134 131.200,244.564 131.200,245.398 131.152 C 246.232 131.104,245.486 131.066,243.739 131.066 C 241.991 131.067,241.309 131.106,242.222 131.153 M153.296 135.003 C 153.297 136.347,153.338 136.866,153.388 136.156 C 153.437 135.445,153.437 134.346,153.386 133.712 C 153.336 133.078,153.296 133.659,153.296 135.003 M246.618 139.157 C 246.620 139.829,246.668 140.075,246.724 139.703 C 246.780 139.332,246.779 138.782,246.721 138.482 C 246.663 138.181,246.617 138.485,246.618 139.157 M153.277 141.112 C 153.279 141.784,153.326 142.030,153.382 141.658 C 153.439 141.287,153.437 140.737,153.379 140.436 C 153.321 140.136,153.275 140.440,153.277 141.112 M246.634 150.764 C 246.634 151.906,246.676 152.373,246.727 151.802 C 246.779 151.231,246.779 150.296,246.727 149.725 C 246.676 149.154,246.634 149.621,246.634 150.764 M232.254 163.470 C 232.171 163.604,232.275 163.714,232.484 163.714 C 232.694 163.714,232.865 163.824,232.865 163.958 C 232.865 164.326,231.988 164.252,231.660 163.857 C 231.432 163.582,231.464 163.487,231.814 163.396 C 232.056 163.334,232.288 163.269,232.330 163.254 C 232.371 163.238,232.337 163.335,232.254 163.470 M240.049 168.112 C 240.049 170.195,240.087 171.048,240.133 170.006 C 240.179 168.965,240.179 167.260,240.133 166.219 C 240.087 165.177,240.049 166.029,240.049 168.112 M176.298 175.480 C 181.002 180.197,184.709 184.014,184.536 183.962 C 184.255 183.877,167.379 167.165,167.379 166.971 C 167.379 166.605,168.806 167.966,176.298 175.480 M228.853 171.203 C 228.646 171.743,228.819 171.869,229.177 171.439 C 229.350 171.230,229.375 171.031,229.237 170.946 C 229.110 170.867,228.938 170.983,228.853 171.203 M233.517 177.316 C 233.427 177.406,233.355 177.598,233.357 177.744 C 233.360 177.906,233.434 177.894,233.550 177.711 C 233.679 177.509,234.757 177.388,236.906 177.336 L 240.073 177.260 236.876 177.206 C 235.118 177.177,233.606 177.227,233.517 177.316 M222.358 177.525 C 222.358 177.736,220.356 179.841,220.156 179.841 C 219.908 179.841,219.699 178.682,219.847 178.119 C 219.932 177.793,220.246 177.642,220.978 177.575 C 221.535 177.525,222.074 177.464,222.175 177.440 C 222.276 177.417,222.358 177.455,222.358 177.525 M219.688 180.772 C 219.354 181.378,216.284 184.355,216.140 184.212 C 216.073 184.145,216.832 183.275,217.826 182.280 C 218.821 181.284,219.570 180.366,219.492 180.240 C 219.414 180.113,219.478 180.089,219.633 180.185 C 219.821 180.301,219.839 180.498,219.688 180.772 M233.152 182.948 L 233.109 184.222 230.605 184.302 L 228.100 184.381 230.612 184.432 C 233.435 184.490,233.445 184.484,233.290 182.740 C 233.195 181.679,233.195 181.680,233.152 182.948 M166.933 183.629 C 167.013 184.084,167.216 184.118,169.948 184.131 L 172.877 184.144 170.189 184.064 C 167.995 183.999,167.441 183.907,167.174 183.562 C 166.870 183.170,166.853 183.175,166.933 183.629 M163.159 184.171 C 163.593 184.225,164.362 184.226,164.869 184.173 C 165.376 184.121,165.021 184.076,164.081 184.075 C 163.140 184.074,162.725 184.117,163.159 184.171 M212.534 184.154 C 216.072 184.344,216.081 184.077,212.421 187.756 C 208.826 191.370,209.430 191.111,204.561 191.125 C 199.273 191.141,199.533 191.378,199.837 186.805 L 200.000 184.362 201.100 184.215 C 202.690 184.003,209.091 183.969,212.534 184.154 M222.419 184.176 C 223.192 184.224,224.456 184.224,225.229 184.176 C 226.002 184.127,225.370 184.088,223.824 184.088 C 222.279 184.088,221.646 184.127,222.419 184.176 M186.675 184.713 C 187.032 185.380,186.537 185.626,185.935 185.081 C 185.330 184.534,185.333 184.239,185.941 184.239 C 186.205 184.239,186.536 184.453,186.675 184.713 M219.722 191.983 C 219.693 196.041,219.753 199.411,219.853 199.474 C 219.954 199.536,220.009 197.371,219.974 194.662 C 219.858 185.474,219.774 184.583,219.722 191.983 M166.961 186.072 C 166.962 186.744,167.010 186.990,167.066 186.619 C 167.122 186.247,167.121 185.697,167.063 185.397 C 167.005 185.096,166.959 185.400,166.961 186.072 M166.732 190.593 C 166.732 191.735,166.774 192.202,166.825 191.631 C 166.877 191.060,166.877 190.125,166.825 189.554 C 166.774 188.983,166.732 189.450,166.732 190.593 M175.514 198.838 C 176.427 198.885,177.856 198.884,178.691 198.837 C 179.525 198.789,178.778 198.751,177.031 198.751 C 175.284 198.751,174.601 198.790,175.514 198.838 M225.351 199.802 C 225.586 199.863,225.971 199.863,226.206 199.802 C 226.442 199.740,226.249 199.690,225.779 199.690 C 225.308 199.690,225.116 199.740,225.351 199.802 " stroke="none" fill="#ebab7d" fill-rule="evenodd"></path><path id="path4" d="M213.413 61.087 C 213.413 62.902,213.451 63.644,213.498 62.737 C 213.545 61.830,213.545 60.345,213.498 59.438 C 213.451 58.531,213.413 59.273,213.413 61.087 M181.552 71.256 C 181.552 71.450,192.780 82.590,192.975 82.590 C 193.191 82.590,192.446 81.814,186.843 76.205 C 181.913 71.270,181.552 70.932,181.552 71.256 M240.050 74.893 C 240.050 77.043,240.088 77.890,240.133 76.775 C 240.178 75.660,240.178 73.901,240.133 72.866 C 240.087 71.830,240.050 72.743,240.050 74.893 M206.477 83.199 L 200.026 89.654 200.502 90.207 C 201.732 91.638,212.889 102.648,212.998 102.539 C 213.066 102.471,210.265 99.572,206.774 96.097 L 200.425 89.779 201.007 89.103 C 201.327 88.731,201.588 88.492,201.588 88.572 C 201.588 88.651,201.906 88.355,202.293 87.913 C 202.681 87.472,205.285 84.830,208.079 82.043 C 210.873 79.256,213.107 76.923,213.044 76.860 C 212.980 76.796,210.025 79.649,206.477 83.199 M163.301 77.642 C 165.157 77.683,168.126 77.683,169.899 77.641 C 171.671 77.600,170.153 77.566,166.524 77.566 C 162.896 77.566,161.445 77.600,163.301 77.642 M159.900 81.124 C 159.900 82.938,159.939 83.681,159.986 82.773 C 160.033 81.866,160.033 80.382,159.986 79.475 C 159.939 78.568,159.900 79.310,159.900 81.124 M187.175 102.494 C 184.019 105.646,181.398 108.340,181.352 108.480 C 181.305 108.621,181.037 108.735,180.757 108.735 C 180.477 108.735,180.321 108.808,180.409 108.896 C 180.498 108.985,180.445 109.207,180.293 109.391 C 179.466 110.387,180.463 109.777,181.583 108.601 C 182.305 107.843,184.310 105.831,186.039 104.131 C 187.768 102.430,189.308 100.893,189.460 100.716 C 189.893 100.212,190.431 99.669,191.784 98.374 C 192.826 97.376,193.282 96.759,192.975 96.763 C 192.941 96.763,190.332 99.343,187.175 102.494 M239.813 107.269 C 239.813 110.696,239.847 112.098,239.889 110.385 C 239.931 108.671,239.931 105.867,239.889 104.154 C 239.847 102.440,239.813 103.842,239.813 107.269 M220.228 109.978 C 220.247 110.235,220.344 110.446,220.442 110.446 C 220.541 110.446,222.090 111.903,223.884 113.684 C 227.272 117.046,229.063 118.663,227.367 116.829 C 224.176 113.378,220.196 109.559,220.228 109.978 M172.570 116.717 C 172.401 116.785,172.313 116.922,172.374 117.020 C 172.435 117.119,171.336 118.345,169.932 119.744 C 168.528 121.143,167.379 122.386,167.379 122.505 C 167.379 122.625,167.814 122.297,168.345 121.777 C 168.875 121.256,169.429 120.721,169.574 120.586 C 170.405 119.817,173.244 116.802,173.244 116.689 C 173.244 116.532,173.003 116.543,172.570 116.717 M200.206 131.593 C 199.991 132.155,200.186 132.186,200.715 131.673 C 201.137 131.263,201.142 131.216,200.768 131.216 C 200.539 131.216,200.286 131.385,200.206 131.593 M246.637 154.918 C 246.637 156.194,246.678 156.717,246.728 156.078 C 246.779 155.440,246.779 154.395,246.728 153.757 C 246.678 153.119,246.637 153.641,246.637 154.918 M167.379 166.971 C 167.379 167.165,184.255 183.877,184.536 183.962 C 184.709 184.014,181.002 180.197,176.298 175.480 C 168.806 167.966,167.379 166.605,167.379 166.971 M230.342 169.748 C 229.037 171.072,229.020 171.549,230.323 170.295 C 231.116 169.532,231.800 168.601,231.567 168.601 C 231.515 168.601,230.964 169.117,230.342 169.748 M156.624 171.224 L 159.797 171.303 159.868 177.832 L 159.939 184.362 159.933 177.764 L 159.927 171.167 156.689 171.156 L 153.451 171.145 156.624 171.224 M240.044 174.465 C 240.044 176.011,240.083 176.643,240.132 175.870 C 240.180 175.098,240.180 173.833,240.132 173.060 C 240.083 172.288,240.044 172.920,240.044 174.465 M224.672 175.450 C 223.607 176.521,222.846 177.398,222.981 177.398 C 223.299 177.398,226.890 173.785,226.730 173.625 C 226.663 173.558,225.737 174.379,224.672 175.450 M217.891 182.212 C 216.863 183.246,216.076 184.147,216.142 184.214 C 216.286 184.358,219.359 181.370,219.696 180.757 C 220.085 180.051,219.845 180.245,217.891 182.212 M160.843 184.408 C 161.078 184.469,161.463 184.469,161.698 184.408 C 161.933 184.346,161.741 184.296,161.271 184.296 C 160.800 184.296,160.608 184.346,160.843 184.408 M186.927 186.370 C 186.927 186.496,189.669 189.334,193.019 192.677 C 199.402 199.046,199.482 199.150,197.906 199.062 C 197.366 199.032,196.791 199.092,196.629 199.195 C 196.467 199.297,198.204 199.363,200.489 199.339 C 202.773 199.316,204.003 199.257,203.221 199.208 C 201.430 199.096,201.295 199.334,205.620 194.962 C 207.636 192.924,209.150 191.300,208.984 191.352 C 208.819 191.405,206.937 193.180,204.802 195.296 C 202.668 197.413,200.743 199.145,200.524 199.145 C 199.998 199.145,198.580 197.831,192.242 191.473 C 189.319 188.541,186.927 186.245,186.927 186.370 M166.493 196.090 C 166.494 197.569,166.534 198.142,166.583 197.364 C 166.631 196.587,166.631 195.377,166.582 194.676 C 166.533 193.976,166.493 194.612,166.493 196.090 M179.108 198.925 C 178.503 199.005,181.582 199.073,185.950 199.075 C 190.318 199.077,193.671 199.042,193.403 198.998 C 192.453 198.843,180.192 198.780,179.108 198.925 M214.356 199.571 C 215.397 199.617,217.101 199.617,218.143 199.571 C 219.184 199.525,218.332 199.487,216.249 199.487 C 214.166 199.487,213.314 199.525,214.356 199.571 M221.686 199.813 C 222.324 199.863,223.369 199.863,224.007 199.813 C 224.646 199.763,224.123 199.722,222.847 199.722 C 221.570 199.722,221.048 199.763,221.686 199.813 " stroke="none" fill="#f9c193" fill-rule="evenodd"></path></g></svg>