<svg id="svg" version="1.1" xmlns="http://www.w3.org/2000/svg" xmlns:xlink="http://www.w3.org/1999/xlink" width="400" height="420.86956521739125" viewBox="0, 0, 400,420.86956521739125"><g id="svgg"><path id="path0" d="M194.633 85.546 C 194.515 85.737,193.985 85.810,193.454 85.708 C 190.591 85.161,189.580 87.447,189.660 94.287 C 189.693 97.099,189.794 98.918,189.884 98.329 C 190.029 97.381,191.200 95.843,191.200 96.600 C 191.200 96.764,191.431 96.706,191.713 96.472 C 192.534 95.791,193.001 96.409,194.006 99.504 C 195.569 104.318,194.393 103.971,209.101 103.959 C 222.660 103.947,223.064 103.989,223.631 105.481 C 224.117 106.760,224.120 161.232,223.634 162.511 C 222.947 164.316,221.874 164.441,208.042 164.316 L 195.128 164.200 194.364 163.256 C 193.629 162.348,193.600 161.298,193.594 135.856 C 193.591 121.305,193.434 109.157,193.245 108.859 C 192.710 108.015,182.807 107.482,182.000 108.254 C 181.477 108.755,181.374 114.077,181.200 149.772 C 181.012 188.185,180.956 190.765,180.294 191.497 C 178.957 192.974,176.969 193.200,165.328 193.200 L 154.150 193.200 153.124 194.300 C 151.475 196.068,151.200 196.954,151.206 200.474 L 151.212 203.800 153.206 204.900 L 155.200 206.000 172.640 206.000 C 190.333 206.000,191.447 205.919,193.200 204.497 C 193.310 204.408,193.490 198.574,193.600 191.532 L 193.800 178.730 194.922 177.765 L 196.045 176.800 236.922 176.796 C 282.470 176.791,280.592 176.871,281.420 174.889 C 281.742 174.119,282.365 173.177,282.805 172.796 C 283.594 172.111,283.603 171.661,283.502 137.551 L 283.400 103.000 281.552 102.880 C 279.763 102.764,279.710 102.793,279.898 103.780 C 280.006 104.341,280.297 104.803,280.547 104.806 C 280.796 104.809,280.730 104.987,280.400 105.200 C 280.070 105.413,279.957 105.591,280.149 105.594 C 280.341 105.597,280.265 105.880,279.981 106.223 C 278.966 107.446,276.782 108.000,272.974 108.000 C 267.478 108.000,268.000 105.082,268.000 135.819 L 268.000 161.861 267.100 162.704 C 265.422 164.276,264.334 164.400,252.259 164.400 C 240.932 164.400,240.514 164.372,238.785 163.500 L 237.000 162.600 236.752 157.000 C 236.615 153.920,236.450 140.714,236.384 127.654 C 236.250 100.786,236.009 102.704,239.411 103.561 C 242.341 104.299,265.606 104.151,266.696 103.388 C 268.760 101.942,269.600 99.153,269.600 93.741 L 269.600 88.748 267.897 88.890 C 266.960 88.969,266.015 89.137,265.797 89.265 C 261.052 92.032,242.282 92.367,239.444 89.735 C 238.602 88.955,238.040 88.780,236.693 88.877 L 235.000 89.000 234.890 95.700 L 234.781 102.400 231.437 102.400 C 227.798 102.400,227.701 102.330,227.559 99.600 C 227.518 98.804,227.467 98.757,227.310 99.372 C 227.060 100.354,226.390 101.022,225.313 101.364 C 224.147 101.734,223.409 98.461,223.404 92.901 L 223.400 88.801 218.671 88.801 C 215.002 88.800,213.808 88.666,213.343 88.200 C 213.013 87.870,212.936 87.600,213.171 87.600 C 213.407 87.600,213.600 87.401,213.600 87.157 C 213.600 86.911,213.309 86.826,212.943 86.966 C 212.391 87.179,212.368 87.121,212.800 86.600 C 213.237 86.074,213.206 86.023,212.591 86.259 C 212.184 86.415,211.968 86.375,212.096 86.168 C 212.221 85.966,211.846 85.772,211.262 85.739 C 210.678 85.705,209.660 85.547,209.000 85.389 C 208.158 85.186,207.919 85.227,208.200 85.526 C 208.420 85.760,209.079 86.038,209.665 86.143 C 211.529 86.478,213.352 87.982,212.692 88.642 C 212.588 88.745,203.188 89.502,200.200 89.647 C 197.841 89.761,194.403 88.622,194.652 87.809 C 194.951 86.830,194.696 87.059,196.600 86.068 L 198.200 85.235 196.524 85.218 C 195.602 85.208,194.751 85.356,194.633 85.546 M200.500 85.896 C 201.765 85.975,203.835 85.975,205.100 85.896 C 206.365 85.816,205.330 85.751,202.800 85.751 C 200.270 85.751,199.235 85.816,200.500 85.896 M148.000 95.600 L 148.000 102.400 142.771 102.400 C 137.817 102.400,135.782 101.952,136.676 101.057 C 137.091 100.642,135.897 99.554,135.285 99.789 C 134.963 99.913,134.461 99.816,134.170 99.575 C 133.826 99.290,133.407 99.268,132.970 99.513 C 132.513 99.769,132.442 99.979,132.749 100.168 C 132.997 100.322,133.200 100.347,133.200 100.224 C 133.200 100.101,133.533 100.315,133.940 100.700 C 135.314 102.000,136.405 102.798,136.703 102.722 C 137.574 102.498,147.871 103.336,148.271 103.664 C 148.550 103.892,152.300 104.009,157.471 103.951 C 162.272 103.897,168.900 103.841,172.200 103.826 C 178.950 103.797,178.890 103.815,179.949 101.423 C 180.385 100.436,181.084 99.564,181.560 99.413 C 182.022 99.266,182.400 98.910,182.400 98.622 C 182.400 97.592,183.447 97.130,184.047 97.895 C 184.530 98.511,184.522 98.549,183.981 98.200 C 183.641 97.980,183.706 98.115,184.125 98.500 C 185.169 99.458,185.600 99.378,185.600 98.229 C 185.600 96.995,184.504 95.879,183.540 96.131 C 182.866 96.308,182.800 96.044,182.800 93.195 C 182.800 91.474,182.691 89.781,182.557 89.433 C 182.341 88.869,180.433 88.800,165.157 88.800 L 148.000 88.800 148.000 95.600 M175.920 89.680 C 177.145 90.905,176.498 92.294,174.567 92.584 C 170.619 93.176,168.370 91.885,170.100 90.021 C 170.504 89.586,170.493 89.544,170.038 89.803 C 169.662 90.018,169.571 89.971,169.762 89.662 C 170.147 89.038,175.294 89.054,175.920 89.680 M115.200 99.800 C 114.618 100.502,113.819 100.616,114.238 99.938 C 114.416 99.650,114.348 99.585,114.055 99.766 C 113.798 99.925,113.703 100.243,113.845 100.472 C 113.986 100.702,113.854 101.043,113.551 101.230 C 113.098 101.511,113.128 101.698,113.722 102.286 C 114.336 102.894,114.407 102.903,114.196 102.345 C 113.938 101.660,115.813 100.006,116.862 99.994 C 117.271 99.989,117.257 99.895,116.800 99.600 C 115.988 99.075,115.780 99.101,115.200 99.800 M119.700 99.476 C 120.085 99.576,120.715 99.576,121.100 99.476 C 121.485 99.375,121.170 99.293,120.400 99.293 C 119.630 99.293,119.315 99.375,119.700 99.476 M110.100 102.687 C 110.705 102.778,111.695 102.778,112.300 102.687 C 112.905 102.595,112.410 102.520,111.200 102.520 C 109.990 102.520,109.495 102.595,110.100 102.687 M276.900 102.676 C 277.285 102.776,277.915 102.776,278.300 102.676 C 278.685 102.575,278.370 102.493,277.600 102.493 C 276.830 102.493,276.515 102.575,276.900 102.676 M112.146 106.816 C 109.618 107.348,108.530 108.546,108.078 111.295 C 107.852 112.673,107.492 114.469,107.279 115.286 C 106.444 118.481,107.547 118.717,123.540 118.766 L 134.479 118.800 135.618 120.019 C 137.181 121.692,137.367 123.429,137.071 133.600 C 136.934 138.330,136.936 153.061,137.076 166.335 L 137.332 190.470 138.366 190.909 C 139.948 191.581,147.722 191.528,148.552 190.840 C 149.350 190.178,149.397 108.014,148.600 107.262 C 148.139 106.827,114.075 106.411,112.146 106.816 M89.499 116.667 C 88.834 116.849,88.803 120.653,88.899 191.330 L 89.000 265.800 95.900 265.909 L 102.800 266.019 102.800 272.476 C 102.800 276.028,102.910 278.823,103.045 278.688 C 103.180 278.553,103.275 276.780,103.256 274.749 C 103.208 269.650,104.028 267.926,105.915 269.160 C 106.534 269.566,107.081 283.846,106.601 287.100 C 106.303 289.125,104.581 289.564,103.423 287.911 C 102.837 287.075,102.800 287.216,102.800 290.264 C 102.800 293.768,102.953 293.979,105.500 293.995 C 106.163 293.999,106.402 294.237,106.406 294.900 C 106.420 296.893,106.738 296.991,113.580 297.127 L 119.990 297.255 120.095 311.127 L 120.200 325.000 127.600 325.109 L 135.000 325.217 134.901 311.509 C 134.783 295.202,134.894 296.000,132.737 296.000 C 129.950 296.000,121.822 295.094,121.422 294.739 C 121.205 294.547,120.990 289.075,120.918 281.902 C 120.849 275.026,120.693 268.635,120.571 267.700 L 120.351 266.000 115.075 265.999 C 107.672 265.999,107.076 265.682,106.790 261.600 C 106.528 257.846,106.713 210.116,106.995 208.927 C 107.554 206.565,108.527 206.373,121.855 205.986 C 128.592 205.790,134.199 205.534,134.316 205.417 C 134.864 204.869,135.284 197.331,134.853 195.764 L 134.403 194.127 125.518 193.860 C 111.146 193.428,109.051 193.230,107.734 192.180 L 106.600 191.276 106.493 156.358 C 106.411 129.200,106.277 121.369,105.893 121.126 C 105.622 120.953,103.942 120.809,102.160 120.806 C 97.134 120.797,94.850 119.310,96.825 117.335 C 97.524 116.636,91.589 116.095,89.499 116.667 M292.200 176.160 C 291.540 176.416,290.242 177.025,289.316 177.513 C 288.227 178.087,286.925 178.400,285.630 178.400 C 284.060 178.400,283.539 178.567,283.214 179.174 C 282.681 180.169,282.641 225.531,283.172 226.926 C 283.421 227.580,283.375 228.475,283.035 229.627 C 282.433 231.668,282.879 233.293,284.242 234.022 C 286.515 235.239,288.049 238.943,286.966 240.596 C 286.617 241.129,286.449 241.756,286.593 241.989 C 286.970 242.598,287.600 242.089,287.600 241.176 C 287.600 240.452,287.850 240.410,291.300 240.557 C 293.335 240.644,295.282 240.565,295.628 240.382 C 296.426 239.959,296.717 233.064,295.975 232.169 C 295.612 231.733,295.653 231.296,296.153 230.242 C 297.453 227.503,296.865 221.928,295.221 221.407 C 294.768 221.263,293.486 220.258,292.372 219.173 L 290.347 217.200 291.474 216.744 C 292.093 216.492,293.661 216.199,294.959 216.091 L 297.317 215.895 296.983 209.848 C 296.627 203.403,296.729 186.842,297.148 182.959 L 297.400 180.624 298.867 182.092 C 299.674 182.900,300.426 183.884,300.540 184.280 C 300.653 184.676,300.646 184.100,300.524 183.000 C 300.257 180.590,299.411 179.460,298.118 179.785 C 297.244 180.004,297.200 179.910,297.200 177.808 L 297.200 175.600 295.300 175.648 C 294.255 175.674,292.860 175.905,292.200 176.160 M97.364 190.237 C 97.425 190.657,97.811 191.065,98.221 191.145 C 99.587 191.412,100.746 192.446,101.006 193.629 C 101.172 194.384,101.514 194.800,101.970 194.800 C 102.854 194.800,103.860 195.890,104.188 197.204 C 104.326 197.756,104.970 198.512,105.619 198.885 C 107.333 199.869,107.421 204.049,105.745 204.878 C 105.113 205.191,104.513 205.960,104.245 206.800 C 103.934 207.780,103.410 208.372,102.500 208.772 C 101.785 209.087,101.200 209.640,101.200 210.002 C 101.200 210.364,100.840 211.007,100.401 211.430 C 99.961 211.854,98.773 213.043,97.760 214.073 C 96.061 215.801,95.837 215.911,94.859 215.498 C 91.666 214.147,92.137 209.200,95.458 209.200 C 98.147 209.200,100.449 208.258,101.004 206.929 C 101.308 206.202,102.028 205.135,102.605 204.558 C 103.925 203.239,103.701 201.182,101.958 198.599 C 101.321 197.656,100.800 196.723,100.800 196.527 C 100.800 196.330,99.990 195.492,99.000 194.665 C 97.766 193.633,97.200 192.852,97.200 192.180 C 97.200 191.362,97.005 191.200,96.023 191.200 C 94.823 191.200,93.409 189.833,93.858 189.107 C 94.749 187.665,97.098 188.422,97.364 190.237 M215.085 208.390 C 199.041 208.570,196.316 208.686,195.991 209.200 C 195.465 210.033,195.504 217.386,196.044 219.189 L 196.488 220.671 215.110 220.935 C 225.352 221.081,237.311 221.200,241.686 221.200 L 249.641 221.200 250.220 219.813 C 251.357 217.092,251.017 210.358,249.678 209.075 L 248.556 208.000 241.178 208.090 C 237.120 208.140,225.378 208.275,215.085 208.390 M294.914 241.975 C 293.248 242.247,292.917 242.459,289.881 245.200 C 287.231 247.592,285.835 247.495,285.523 244.899 C 285.174 242.005,283.021 243.074,282.591 246.354 C 281.939 251.319,282.011 251.271,274.732 251.573 C 271.725 251.698,269.115 251.950,268.932 252.133 C 268.193 252.872,267.839 281.620,268.554 282.831 C 269.260 284.025,269.356 289.200,268.672 289.200 C 268.475 289.200,268.422 289.479,268.553 289.821 C 268.697 290.197,268.625 290.339,268.370 290.182 C 268.139 290.039,267.619 290.221,267.215 290.587 C 266.206 291.500,266.064 291.102,265.804 286.631 C 265.482 281.102,264.182 279.482,260.726 280.301 C 259.776 280.527,258.321 280.621,257.492 280.511 C 255.295 280.219,253.797 282.002,253.450 285.321 C 252.961 290.006,253.167 291.558,254.882 296.100 L 255.297 297.200 261.149 297.195 C 269.861 297.186,269.187 297.808,269.496 289.500 L 269.716 283.600 276.178 283.600 C 280.671 283.600,282.786 283.454,283.120 283.120 C 283.477 282.763,283.600 278.702,283.600 267.320 L 283.600 252.000 290.400 252.000 L 297.200 252.000 297.200 246.800 C 297.200 243.940,297.065 241.623,296.900 241.650 C 296.735 241.678,295.841 241.824,294.914 241.975 M240.110 296.365 L 238.419 296.969 238.310 311.092 L 238.200 325.215 246.800 325.108 L 255.400 325.000 255.506 313.483 C 255.610 302.172,255.598 301.973,254.832 302.383 C 252.559 303.599,251.857 302.968,251.389 299.283 C 251.193 297.736,250.889 297.021,250.260 296.626 C 248.939 295.797,242.186 295.623,240.110 296.365 " stroke="none" fill="#3c1327" fill-rule="evenodd"></path><path id="path1" d="M240.200 85.489 C 238.927 85.803,238.400 86.417,238.400 87.587 L 238.400 88.675 245.548 88.943 C 256.566 89.357,268.800 88.860,268.800 87.999 C 268.800 87.131,267.766 86.285,266.000 85.709 C 264.608 85.254,241.933 85.061,240.200 85.489 M224.324 93.483 C 224.398 96.176,224.601 97.923,224.824 97.785 C 225.031 97.657,225.200 97.723,225.200 97.932 C 225.200 98.558,226.562 98.252,227.123 97.499 C 227.411 97.114,227.535 96.619,227.400 96.399 C 227.264 96.180,227.370 96.000,227.635 96.000 C 228.251 96.000,227.820 90.146,227.144 89.332 C 226.893 89.030,226.128 88.820,225.444 88.865 L 224.200 88.948 224.324 93.483 M182.396 100.815 C 181.688 103.445,181.732 103.469,187.667 103.689 C 193.475 103.904,193.761 103.809,193.357 101.800 C 192.956 99.808,192.263 99.555,186.523 99.306 L 182.845 99.146 182.396 100.815 M269.869 99.488 C 269.001 100.893,269.113 103.200,270.049 103.197 C 275.861 103.180,277.523 102.212,275.426 100.067 C 274.791 99.417,270.208 98.939,269.869 99.488 M104.494 103.215 C 103.123 103.765,102.801 105.180,102.831 110.521 C 102.867 116.784,102.872 116.800,104.841 116.800 L 106.427 116.800 106.381 109.800 C 106.333 102.442,106.341 102.473,104.494 103.215 M196.221 107.088 C 195.717 108.404,195.987 161.544,196.500 161.876 C 197.266 162.372,220.933 162.031,221.250 161.520 C 221.918 160.439,221.813 108.079,221.141 107.408 C 221.013 107.280,218.319 107.216,215.154 107.267 C 206.422 107.407,200.405 107.265,198.321 106.869 C 196.816 106.582,196.399 106.626,196.221 107.088 M261.000 106.800 C 260.560 106.989,256.012 107.156,250.894 107.172 L 241.588 107.200 240.760 108.500 C 239.608 110.307,239.923 161.017,241.091 161.900 C 241.900 162.511,262.646 162.612,263.600 162.009 C 264.529 161.422,264.721 109.381,263.801 107.602 C 263.171 106.384,262.449 106.177,261.000 106.800 M156.395 107.118 C 153.634 107.299,152.924 108.638,152.852 113.800 C 152.821 116.000,152.649 119.124,152.470 120.742 C 152.291 122.360,152.273 124.700,152.431 125.942 C 152.589 127.184,152.819 142.034,152.941 158.942 C 153.150 187.906,153.205 189.716,153.881 190.230 C 154.994 191.073,175.258 191.042,176.551 190.195 L 177.474 189.590 177.762 149.619 C 178.034 111.875,178.010 109.585,177.346 108.524 C 176.959 107.906,176.614 107.352,176.580 107.293 C 176.490 107.135,158.512 106.980,156.395 107.118 M109.214 122.774 C 108.580 123.958,108.644 189.684,109.280 190.320 C 110.100 191.140,134.240 190.994,134.557 190.167 C 135.000 189.013,134.834 123.611,134.386 122.774 C 133.990 122.035,133.425 122.000,121.800 122.000 C 110.175 122.000,109.610 122.035,109.214 122.774 M283.467 172.845 C 282.539 176.309,283.172 176.711,288.501 176.046 C 293.347 175.441,293.600 175.349,293.600 174.181 C 293.600 172.701,293.228 172.583,287.161 172.141 C 283.780 171.894,283.718 171.906,283.467 172.845 M260.000 179.279 C 255.930 179.475,239.980 179.528,224.555 179.398 L 196.511 179.161 196.260 180.681 C 195.960 182.494,195.911 203.702,196.204 204.467 C 196.372 204.905,201.183 204.981,223.199 204.892 L 249.990 204.783 251.590 205.794 C 254.093 207.374,254.492 208.770,254.323 215.352 L 254.180 220.904 252.809 222.049 C 250.854 223.681,251.600 223.645,222.309 223.517 L 195.618 223.400 194.605 222.387 C 193.647 221.429,193.579 221.072,193.334 215.672 C 193.179 212.271,192.898 209.855,192.637 209.685 C 192.397 209.528,183.200 209.306,172.200 209.191 C 161.200 209.076,151.930 208.848,151.600 208.685 C 149.782 207.784,149.012 205.618,148.883 201.035 C 148.708 194.806,148.758 194.870,144.211 194.999 C 138.537 195.161,138.226 195.404,138.083 199.783 C 138.019 201.750,137.818 203.548,137.635 203.779 C 137.453 204.011,137.187 204.853,137.043 205.651 C 136.900 206.449,136.345 207.574,135.810 208.151 L 134.838 209.200 123.119 209.230 C 111.856 209.258,109.714 209.353,109.224 209.842 C 108.750 210.316,108.766 262.477,109.240 263.049 C 109.589 263.469,111.024 263.600,115.268 263.600 C 123.500 263.600,123.191 262.952,123.197 280.251 C 123.201 292.767,122.638 291.699,129.337 291.919 C 137.525 292.187,137.200 291.416,137.200 310.557 L 137.200 325.194 186.559 325.194 L 235.919 325.194 235.977 310.777 C 236.054 291.660,235.869 292.033,245.276 292.010 C 249.964 291.998,249.739 292.264,250.022 286.400 C 250.389 278.809,251.612 277.618,259.051 277.607 C 264.998 277.598,264.508 278.660,264.845 265.059 C 265.231 249.486,265.028 249.887,272.768 249.434 C 275.465 249.277,277.903 249.059,278.187 248.950 C 278.980 248.645,279.283 245.404,279.415 235.800 C 279.482 230.960,279.730 225.830,279.965 224.400 C 280.232 222.781,280.395 213.689,280.397 200.300 L 280.400 178.800 273.900 178.862 C 270.325 178.896,264.070 179.083,260.000 179.279 M297.225 197.714 C 297.198 212.049,297.133 211.705,299.383 209.219 C 300.981 207.453,301.473 184.800,299.912 184.800 C 299.553 184.800,299.555 184.915,299.920 185.280 C 300.184 185.544,300.395 186.219,300.388 186.780 C 300.376 187.749,300.352 187.760,299.909 187.000 C 299.456 186.225,299.432 186.231,299.129 187.200 C 298.896 187.949,298.867 187.841,299.014 186.767 C 299.168 185.652,299.073 185.333,298.588 185.333 C 298.234 185.333,298.054 185.563,298.170 185.867 C 298.283 186.160,298.285 186.400,298.175 186.400 C 298.064 186.400,297.811 185.995,297.612 185.500 C 297.385 184.934,297.241 189.473,297.225 197.714 M297.200 229.600 L 297.200 241.200 298.138 241.200 C 300.142 241.200,300.422 240.261,300.661 232.746 C 300.931 224.290,300.451 219.732,299.183 218.706 C 297.206 217.105,297.200 217.139,297.200 229.600 " stroke="none" fill="#eba373" fill-rule="evenodd"></path><path id="path2" d="M196.078 86.353 C 194.772 87.022,194.947 86.844,194.652 87.809 C 194.401 88.628,197.928 89.786,200.200 89.631 C 200.640 89.601,202.800 89.434,205.000 89.259 L 209.000 88.943 203.100 88.871 L 197.200 88.800 197.200 87.624 C 197.200 86.419,197.887 85.605,198.345 86.268 C 198.600 86.637,207.350 86.388,207.734 86.000 C 208.239 85.489,197.104 85.826,196.078 86.353 M209.869 86.608 C 210.568 86.921,211.253 87.362,211.393 87.589 C 211.714 88.108,212.400 88.126,212.400 87.614 C 212.400 87.104,210.996 86.371,209.665 86.187 C 208.670 86.049,208.683 86.076,209.869 86.608 M223.438 89.312 C 222.383 91.568,223.977 101.788,225.318 101.363 C 226.507 100.985,227.281 100.116,227.129 99.328 C 227.008 98.700,226.957 98.700,226.329 99.329 C 224.655 101.002,224.256 100.058,223.991 93.800 C 223.854 90.573,223.644 88.870,223.438 89.312 M238.813 89.187 C 238.944 91.408,249.665 92.429,257.800 90.995 C 265.523 89.634,268.868 88.587,263.278 89.281 C 259.443 89.757,246.852 89.801,242.500 89.354 C 240.465 89.145,238.806 89.070,238.813 89.187 M169.762 89.662 C 169.571 89.971,169.662 90.018,170.038 89.803 C 170.493 89.544,170.504 89.586,170.100 90.021 C 168.370 91.885,170.619 93.176,174.567 92.584 C 176.498 92.294,177.145 90.905,175.920 89.680 C 175.294 89.054,170.147 89.038,169.762 89.662 M191.649 96.511 C 191.402 96.758,191.200 96.812,191.200 96.631 C 191.200 96.450,190.930 96.526,190.600 96.800 C 190.270 97.074,190.000 97.726,190.000 98.249 C 190.000 98.828,190.235 99.200,190.600 99.200 C 190.930 99.200,191.200 99.059,191.200 98.887 C 191.200 98.715,191.631 98.539,192.158 98.495 C 193.016 98.424,193.189 98.689,193.827 101.044 C 194.907 105.033,194.328 104.877,208.610 105.024 C 215.320 105.093,221.178 105.266,221.628 105.409 C 223.262 105.928,223.306 106.735,223.233 134.788 L 223.162 161.776 222.292 162.588 C 221.352 163.464,206.353 164.128,199.138 163.612 C 193.899 163.237,194.400 166.177,194.400 135.798 C 194.400 108.534,194.337 107.488,192.667 106.958 C 191.360 106.543,182.860 106.160,182.002 106.477 C 180.509 107.030,180.480 107.714,180.213 148.602 C 180.043 174.492,179.802 189.383,179.540 190.066 C 178.777 192.057,177.721 192.200,163.800 192.200 L 151.000 192.200 150.748 171.200 C 150.348 137.809,150.292 117.669,150.591 114.000 C 150.744 112.130,150.701 109.568,150.496 108.307 C 150.177 106.346,150.216 105.987,150.762 105.822 C 153.187 105.089,158.216 104.797,167.876 104.827 C 179.941 104.864,180.284 104.822,180.660 103.256 C 181.009 101.803,182.293 99.303,182.776 99.137 C 183.032 99.049,183.038 98.785,182.793 98.400 C 182.465 97.883,182.411 97.893,182.406 98.473 C 182.403 98.843,182.022 99.266,181.560 99.413 C 181.084 99.564,180.385 100.436,179.949 101.423 C 178.890 103.815,178.950 103.797,172.200 103.826 C 168.900 103.841,162.272 103.897,157.471 103.951 C 152.081 104.012,148.557 103.896,148.259 103.649 C 147.993 103.429,144.997 103.119,141.601 102.961 C 136.010 102.700,135.361 102.594,134.747 101.837 C 134.374 101.376,133.920 101.149,133.738 101.330 C 133.556 101.512,133.765 101.861,134.203 102.106 C 136.101 103.168,126.808 104.081,121.400 103.363 C 116.716 102.742,109.314 102.554,107.504 103.011 C 106.609 103.236,106.600 103.306,106.600 110.187 C 106.600 118.086,106.636 117.986,104.091 117.074 C 102.824 116.620,101.079 116.410,98.800 116.438 C 96.775 116.463,95.803 116.592,96.396 116.757 C 97.074 116.946,97.234 117.132,96.896 117.341 C 96.623 117.509,96.400 118.159,96.400 118.784 C 96.400 120.287,97.856 120.798,102.160 120.806 C 103.942 120.809,105.622 120.953,105.893 121.126 C 106.277 121.369,106.411 129.200,106.493 156.358 L 106.600 191.276 107.734 192.180 C 109.051 193.230,111.146 193.428,125.518 193.860 L 134.403 194.127 134.853 195.764 C 135.284 197.331,134.864 204.869,134.316 205.417 C 134.199 205.534,128.592 205.790,121.855 205.986 C 108.527 206.373,107.554 206.565,106.995 208.927 C 106.713 210.116,106.528 257.846,106.790 261.600 C 107.076 265.682,107.672 265.999,115.075 265.999 L 120.351 266.000 120.571 267.700 C 120.693 268.635,120.849 275.026,120.918 281.902 C 120.990 289.075,121.205 294.547,121.422 294.739 C 121.820 295.092,129.943 296.000,132.702 296.000 C 134.885 296.000,134.800 295.410,134.800 310.600 C 134.800 317.934,134.909 324.219,135.043 324.567 C 135.811 326.568,136.000 323.909,136.000 311.125 C 136.000 293.706,136.219 294.408,130.800 294.400 C 127.025 294.395,122.866 293.826,122.274 293.234 C 122.054 293.014,121.778 287.296,121.630 279.924 C 121.308 263.821,121.910 265.200,115.205 265.200 C 109.428 265.200,108.242 264.869,107.620 263.085 C 107.040 261.422,107.045 213.564,107.625 210.859 C 108.380 207.336,107.971 207.441,121.731 207.273 L 133.800 207.127 134.800 206.074 C 136.002 204.809,136.624 193.442,135.530 192.748 C 135.238 192.563,129.229 192.409,122.175 192.406 L 109.350 192.400 108.275 191.278 L 107.200 190.156 107.200 156.064 C 107.200 125.354,107.264 121.874,107.846 120.986 L 108.492 120.000 121.246 120.000 C 133.299 120.000,134.042 120.042,134.770 120.770 C 136.467 122.467,136.442 121.906,136.414 157.584 C 136.392 184.918,136.490 192.009,136.893 192.262 C 137.172 192.437,140.167 192.595,143.548 192.612 C 151.272 192.652,150.979 192.404,150.628 198.609 C 150.123 207.530,149.292 207.214,173.111 207.153 C 183.170 207.127,191.940 206.990,192.600 206.849 L 193.800 206.593 194.077 194.397 C 194.399 180.184,194.499 179.250,195.786 178.307 C 196.596 177.714,252.199 177.249,281.200 177.593 C 281.728 177.599,281.790 180.887,281.716 205.091 C 281.645 228.505,281.719 232.756,282.216 233.753 C 282.864 235.052,283.049 241.799,282.446 242.171 C 282.252 242.292,281.881 243.607,281.623 245.095 C 281.364 246.583,281.079 248.169,280.989 248.620 C 280.712 250.003,278.487 250.712,273.456 251.022 C 266.638 251.442,267.332 248.823,266.755 276.292 L 266.635 281.985 267.718 283.114 C 268.935 284.385,269.166 285.426,268.143 285.034 C 267.572 284.814,267.557 284.873,268.030 285.491 C 268.329 285.881,268.414 286.065,268.219 285.899 C 268.024 285.734,267.539 285.893,267.141 286.254 C 266.372 286.949,266.320 286.899,265.848 285.000 C 265.739 284.560,265.750 285.640,265.873 287.400 C 266.139 291.191,266.251 291.459,267.215 290.587 C 267.619 290.221,268.139 290.039,268.370 290.182 C 268.625 290.339,268.697 290.197,268.553 289.821 C 268.422 289.479,268.475 289.200,268.672 289.200 C 269.218 289.200,269.225 287.514,268.681 286.842 C 268.350 286.431,268.343 286.332,268.660 286.522 C 269.359 286.941,269.242 284.002,268.510 282.758 C 267.835 281.612,268.232 252.834,268.932 252.133 C 269.115 251.950,271.725 251.698,274.732 251.573 C 282.011 251.271,281.939 251.319,282.591 246.354 C 283.021 243.074,285.174 242.005,285.523 244.899 C 285.835 247.498,287.245 247.594,289.865 245.193 C 292.563 242.720,293.681 242.000,294.821 242.000 C 297.288 242.000,297.161 242.714,297.176 228.717 L 297.190 215.905 294.895 216.096 C 293.633 216.201,292.093 216.492,291.474 216.744 L 290.347 217.200 292.372 219.173 C 293.486 220.258,294.768 221.263,295.221 221.407 C 296.865 221.928,297.453 227.503,296.153 230.242 C 295.653 231.296,295.612 231.733,295.975 232.169 C 296.717 233.064,296.426 239.959,295.628 240.382 C 295.282 240.565,293.335 240.644,291.300 240.557 C 287.850 240.410,287.600 240.452,287.600 241.176 C 287.600 242.089,286.970 242.598,286.593 241.989 C 286.449 241.756,286.617 241.129,286.966 240.596 C 288.049 238.943,286.515 235.239,284.242 234.022 C 282.879 233.293,282.433 231.668,283.035 229.627 C 283.375 228.475,283.421 227.580,283.172 226.926 C 282.641 225.531,282.681 180.169,283.214 179.174 C 283.539 178.567,284.060 178.400,285.630 178.400 C 286.937 178.400,288.216 178.089,289.316 177.503 C 290.242 177.009,291.360 176.487,291.800 176.343 C 292.572 176.089,292.570 176.078,291.750 176.040 C 291.283 176.018,290.135 176.270,289.200 176.600 C 284.200 178.364,280.858 177.047,282.600 174.000 C 282.914 173.450,283.178 172.852,283.186 172.671 C 283.214 172.013,281.956 173.608,281.403 174.931 C 280.595 176.864,282.345 176.791,236.922 176.796 L 196.045 176.800 194.922 177.765 L 193.800 178.730 193.600 191.532 C 193.490 198.574,193.310 204.408,193.200 204.497 C 191.447 205.919,190.333 206.000,172.640 206.000 L 155.200 206.000 153.206 204.900 L 151.212 203.800 151.206 200.474 C 151.200 196.954,151.475 196.068,153.124 194.300 L 154.150 193.200 165.328 193.200 C 176.969 193.200,178.957 192.974,180.294 191.497 C 180.956 190.765,181.012 188.185,181.200 149.772 C 181.374 114.077,181.477 108.755,182.000 108.254 C 182.807 107.482,192.710 108.015,193.245 108.859 C 193.434 109.157,193.591 121.305,193.594 135.856 C 193.600 161.298,193.629 162.348,194.364 163.256 L 195.128 164.200 208.042 164.316 C 221.874 164.441,222.947 164.316,223.634 162.511 C 224.120 161.232,224.117 106.760,223.631 105.481 C 223.064 103.989,222.660 103.947,209.101 103.959 C 194.363 103.971,195.535 104.325,193.973 99.397 C 193.018 96.384,192.464 95.696,191.649 96.511 M123.900 99.489 C 124.615 99.578,125.785 99.578,126.500 99.489 C 127.215 99.401,126.630 99.328,125.200 99.328 C 123.770 99.328,123.185 99.401,123.900 99.489 M116.200 100.225 C 114.644 101.029,113.770 101.903,114.146 102.279 C 114.309 102.443,114.589 102.342,114.766 102.054 C 114.944 101.767,115.204 101.547,115.345 101.566 C 115.485 101.585,115.613 101.465,115.628 101.300 C 115.674 100.819,116.769 100.334,117.203 100.602 C 117.421 100.737,117.600 100.670,117.600 100.453 C 117.600 100.236,117.915 99.976,118.300 99.876 C 118.889 99.722,118.873 99.686,118.200 99.649 C 117.760 99.625,116.860 99.884,116.200 100.225 M268.266 101.304 C 267.134 104.013,267.204 104.000,253.488 104.000 C 245.862 104.000,240.489 103.832,239.411 103.561 C 236.009 102.704,236.250 100.786,236.384 127.654 C 236.450 140.714,236.615 153.920,236.752 157.000 L 237.000 162.600 238.785 163.500 C 240.514 164.372,240.932 164.400,252.259 164.400 C 264.334 164.400,265.422 164.276,267.100 162.704 L 268.000 161.861 268.000 135.819 C 268.000 105.082,267.478 108.000,272.974 108.000 C 276.782 108.000,278.966 107.446,279.981 106.223 C 280.265 105.880,280.341 105.597,280.149 105.594 C 279.957 105.591,280.070 105.413,280.400 105.200 C 280.753 104.972,280.806 104.810,280.528 104.806 C 280.268 104.803,279.998 104.395,279.928 103.900 C 279.644 101.899,277.772 102.516,277.934 104.557 C 278.109 106.753,277.202 107.061,271.878 106.618 C 266.520 106.172,267.036 103.316,266.800 134.742 C 266.690 149.404,266.454 161.626,266.275 161.903 C 264.908 164.015,243.411 164.825,239.705 162.903 L 238.200 162.123 237.954 149.362 C 237.584 130.214,237.479 106.279,237.761 105.600 C 237.975 105.082,240.038 104.998,252.786 104.986 C 260.913 104.978,267.672 104.861,267.806 104.727 C 268.145 104.389,269.208 100.275,269.009 100.075 C 268.920 99.986,268.585 100.539,268.266 101.304 M148.600 107.262 C 149.397 108.014,149.350 190.178,148.552 190.840 C 147.722 191.528,139.948 191.581,138.366 190.909 L 137.332 190.470 137.076 166.335 C 136.936 153.061,136.934 138.330,137.071 133.600 C 137.367 123.429,137.181 121.692,135.618 120.019 L 134.479 118.800 123.540 118.766 C 107.547 118.717,106.444 118.481,107.279 115.286 C 107.492 114.469,107.852 112.673,108.078 111.295 C 108.530 108.546,109.618 107.348,112.146 106.816 C 114.075 106.411,148.139 106.827,148.600 107.262 M297.200 181.213 C 297.200 181.426,297.380 181.600,297.600 181.600 C 297.820 181.600,297.979 181.735,297.953 181.900 C 297.789 182.935,298.017 183.393,298.400 182.800 C 298.658 182.400,298.790 182.367,298.794 182.700 C 298.797 182.975,298.984 183.200,299.209 183.200 C 299.755 183.200,298.509 181.327,297.776 181.046 C 297.459 180.925,297.200 180.999,297.200 181.213 M296.709 193.700 C 296.588 198.815,296.614 203.990,296.766 205.200 C 296.924 206.452,297.080 202.447,297.128 195.900 C 297.174 189.575,297.148 184.400,297.070 184.400 C 296.992 184.400,296.829 188.585,296.709 193.700 M94.941 188.411 C 93.092 189.128,93.896 191.200,96.023 191.200 C 97.005 191.200,97.200 191.362,97.200 192.180 C 97.200 192.852,97.766 193.633,99.000 194.665 C 99.990 195.492,100.800 196.330,100.800 196.527 C 100.800 196.723,101.321 197.656,101.958 198.599 C 103.701 201.182,103.925 203.239,102.605 204.558 C 102.028 205.135,101.308 206.202,101.004 206.929 C 100.449 208.258,98.147 209.200,95.458 209.200 C 92.137 209.200,91.666 214.147,94.859 215.498 C 95.837 215.911,96.061 215.801,97.760 214.073 C 98.773 213.043,99.961 211.854,100.401 211.430 C 100.840 211.007,101.200 210.364,101.200 210.002 C 101.200 209.640,101.785 209.087,102.500 208.772 C 103.410 208.372,103.934 207.780,104.245 206.800 C 104.513 205.960,105.113 205.191,105.745 204.878 C 107.421 204.049,107.333 199.869,105.619 198.885 C 104.970 198.512,104.326 197.756,104.188 197.204 C 103.860 195.890,102.854 194.800,101.970 194.800 C 101.514 194.800,101.172 194.384,101.006 193.629 C 100.746 192.446,99.587 191.412,98.221 191.145 C 97.811 191.065,97.425 190.657,97.364 190.237 C 97.179 188.973,95.926 188.028,94.941 188.411 M197.274 207.228 C 194.476 207.611,194.596 207.349,194.626 213.005 C 194.656 218.584,195.243 221.118,196.567 221.388 C 198.928 221.870,249.052 222.052,250.081 221.582 C 253.107 220.202,253.369 211.001,250.470 207.894 L 249.438 206.787 224.419 206.862 C 210.659 206.903,198.443 207.068,197.274 207.228 M249.678 209.075 C 251.017 210.358,251.357 217.092,250.220 219.813 L 249.641 221.200 241.686 221.200 C 237.311 221.200,225.352 221.081,215.110 220.935 L 196.488 220.671 196.044 219.189 C 195.504 217.386,195.465 210.033,195.991 209.200 C 196.316 208.686,199.041 208.570,215.085 208.390 C 225.378 208.275,237.120 208.140,241.178 208.090 L 248.556 208.000 249.678 209.075 M104.526 269.107 C 103.468 269.279,103.112 270.597,103.237 273.874 C 103.286 275.153,103.201 277.730,103.049 279.600 C 102.775 282.964,102.952 282.998,103.994 279.781 C 103.997 279.771,104.495 279.771,105.100 279.781 L 106.200 279.800 106.314 283.451 L 106.429 287.101 105.384 287.301 C 104.659 287.439,104.103 287.247,103.569 286.675 C 103.002 286.066,102.800 286.003,102.800 286.436 C 102.800 287.598,104.019 288.800,105.198 288.800 C 106.934 288.800,107.107 287.198,106.587 275.920 C 106.270 269.045,106.206 268.833,104.526 269.107 M258.536 279.515 L 254.873 279.629 253.445 281.372 L 252.016 283.115 251.937 288.057 C 251.891 290.931,252.036 293.335,252.282 293.800 C 252.515 294.240,252.866 295.140,253.061 295.800 C 253.305 296.625,253.712 297.042,254.364 297.135 C 255.145 297.247,255.261 297.141,255.022 296.535 C 254.039 294.046,253.210 290.772,253.205 289.359 C 253.184 282.782,254.480 280.306,257.866 280.455 C 258.930 280.502,260.533 280.401,261.429 280.230 C 263.240 279.886,265.351 281.399,265.718 283.303 C 265.813 283.797,265.916 283.249,265.946 282.087 C 265.981 280.705,265.827 279.922,265.500 279.822 C 264.478 279.508,262.097 279.403,258.536 279.515 M240.065 294.900 C 237.406 295.768,237.400 295.806,237.400 311.284 C 237.400 320.383,237.538 325.153,237.800 325.066 C 238.054 324.982,238.238 319.816,238.305 310.929 L 238.410 296.924 240.105 296.378 C 242.265 295.682,249.038 295.844,250.260 296.620 C 250.887 297.018,251.193 297.739,251.389 299.283 C 251.795 302.483,251.946 302.800,253.053 302.800 C 255.059 302.800,255.600 302.159,255.600 299.786 C 255.600 297.570,255.173 297.027,254.432 298.300 C 254.128 298.822,254.021 298.852,254.012 298.420 C 254.003 297.969,253.893 297.947,253.520 298.320 C 252.530 299.310,252.000 298.846,252.000 296.987 C 252.000 295.474,251.851 295.118,251.100 294.836 C 249.788 294.342,241.627 294.390,240.065 294.900 " stroke="none" fill="#7c4c44" fill-rule="evenodd"></path><path id="path3" d="M199.600 85.465 C 203.965 85.758,208.311 85.775,208.140 85.500 C 208.037 85.335,205.668 85.232,202.876 85.272 C 200.084 85.312,198.610 85.399,199.600 85.465 M211.514 86.051 C 212.322 86.284,212.722 86.602,212.552 86.877 C 212.373 87.167,212.460 87.210,212.799 87.001 C 213.488 86.575,212.200 85.585,211.024 85.636 C 210.479 85.660,210.645 85.800,211.514 86.051 M207.313 87.784 C 207.072 88.215,205.997 88.402,203.193 88.501 L 199.400 88.634 203.500 88.717 C 206.982 88.787,207.600 88.706,207.600 88.176 C 207.600 87.833,207.780 87.664,208.000 87.800 C 208.220 87.936,208.400 87.857,208.400 87.624 C 208.400 87.003,207.692 87.107,207.313 87.784 M244.200 89.196 C 249.029 89.528,257.031 89.688,256.767 89.449 C 256.675 89.366,252.820 89.207,248.200 89.096 C 242.569 88.961,241.250 88.994,244.200 89.196 M259.900 89.093 C 260.835 89.177,262.365 89.177,263.300 89.093 C 264.235 89.009,263.470 88.940,261.600 88.940 C 259.730 88.940,258.965 89.009,259.900 89.093 M224.148 93.200 C 224.148 95.510,224.214 96.455,224.295 95.300 C 224.376 94.145,224.376 92.255,224.295 91.100 C 224.214 89.945,224.148 90.890,224.148 93.200 M226.920 97.700 C 226.540 98.295,225.200 98.475,225.200 97.932 C 225.200 97.723,225.020 97.664,224.800 97.800 C 223.853 98.385,224.384 99.291,225.500 98.993 C 226.105 98.832,226.789 98.692,227.020 98.683 C 227.251 98.674,227.465 98.337,227.495 97.933 C 227.560 97.077,227.368 96.999,226.920 97.700 M120.929 100.000 C 120.359 100.533,120.320 100.533,120.578 100.000 C 120.738 99.670,120.478 99.850,120.000 100.400 C 119.522 100.950,119.247 101.175,119.389 100.900 C 119.531 100.625,119.469 100.400,119.251 100.400 C 119.032 100.400,118.732 100.784,118.583 101.253 C 118.371 101.923,118.237 101.987,117.962 101.553 C 117.697 101.133,117.611 101.124,117.606 101.514 C 117.602 101.884,117.399 101.921,116.883 101.644 C 116.327 101.347,116.154 101.415,116.114 101.944 C 116.033 103.026,131.970 103.491,132.327 102.418 C 132.405 102.185,132.633 102.097,132.834 102.221 C 133.035 102.345,133.200 102.269,133.200 102.051 C 133.200 101.708,131.939 101.079,131.132 101.020 C 130.985 101.009,130.445 100.640,129.932 100.200 C 128.719 99.159,121.989 99.010,120.929 100.000 M131.428 99.555 C 131.307 99.750,131.522 100.155,131.904 100.455 C 132.527 100.943,132.545 100.930,132.077 100.331 C 131.624 99.752,131.677 99.638,132.477 99.485 C 133.374 99.314,133.375 99.307,132.524 99.254 C 132.042 99.225,131.549 99.360,131.428 99.555 M181.818 101.007 C 180.500 104.460,182.036 105.787,187.200 105.655 C 189.752 105.591,193.134 106.302,194.000 107.085 C 194.518 107.554,194.627 111.304,194.800 134.572 C 194.991 160.354,195.033 161.553,195.762 162.358 C 196.505 163.179,196.829 163.200,208.800 163.200 C 222.008 163.200,221.770 163.236,222.520 161.116 C 223.035 159.662,222.954 109.071,222.434 107.500 C 221.789 105.549,222.369 105.628,207.719 105.505 C 193.629 105.386,194.604 105.641,193.740 101.852 L 193.135 99.200 191.501 99.200 C 189.706 99.200,189.667 99.520,191.423 99.838 C 192.957 100.117,193.063 100.213,193.337 101.587 C 193.795 103.874,193.665 103.924,187.875 103.705 C 181.812 103.475,181.740 103.441,182.325 101.138 C 182.909 98.835,182.672 98.773,181.818 101.007 M135.113 100.135 C 135.614 100.414,135.884 100.796,135.713 100.985 C 135.540 101.174,135.651 101.183,135.961 101.003 C 136.561 100.655,135.530 99.584,134.624 99.614 C 134.391 99.622,134.611 99.856,135.113 100.135 M268.854 102.326 C 268.779 103.605,269.490 104.800,270.325 104.800 C 270.709 104.800,271.330 105.160,271.707 105.600 C 272.184 106.157,272.887 106.400,274.025 106.400 C 275.580 106.400,277.197 105.493,276.457 105.035 C 276.265 104.917,276.160 104.347,276.223 103.770 L 276.338 102.720 272.802 103.000 C 269.310 103.276,269.264 103.268,269.088 102.340 L 268.909 101.400 268.854 102.326 M153.100 105.884 C 150.941 106.216,150.859 108.712,151.100 166.686 L 151.200 190.772 152.100 191.284 C 153.308 191.972,172.063 192.251,175.416 191.631 C 179.690 190.841,179.237 195.516,179.586 148.549 C 179.755 125.917,179.961 107.040,180.046 106.600 C 180.194 105.831,157.384 105.224,153.100 105.884 M239.326 105.879 C 237.799 106.176,237.734 110.460,238.651 150.638 L 238.907 161.876 240.181 162.562 C 242.137 163.615,262.054 163.658,264.371 162.613 L 265.944 161.904 266.088 155.852 C 266.168 152.523,266.277 140.212,266.332 128.492 C 266.386 116.773,266.524 106.942,266.638 106.645 C 266.763 106.319,266.480 106.007,265.923 105.858 C 264.909 105.587,240.732 105.606,239.326 105.879 M204.800 107.293 C 207.330 107.329,211.989 107.318,215.154 107.267 C 218.319 107.216,221.013 107.280,221.141 107.408 C 221.813 108.079,221.918 160.439,221.250 161.520 C 220.933 162.031,197.266 162.372,196.500 161.876 C 195.987 161.544,195.717 108.404,196.221 107.088 C 196.399 106.626,196.816 106.582,198.321 106.869 C 199.355 107.065,202.270 107.256,204.800 107.293 M263.801 107.602 C 264.721 109.381,264.529 161.422,263.600 162.009 C 262.646 162.612,241.900 162.511,241.091 161.900 C 239.923 161.017,239.608 110.307,240.760 108.500 L 241.588 107.200 250.894 107.172 C 256.012 107.156,260.560 106.989,261.000 106.800 C 262.449 106.177,263.171 106.384,263.801 107.602 M176.580 107.293 C 176.614 107.352,176.959 107.906,177.346 108.524 C 178.010 109.585,178.034 111.875,177.762 149.619 L 177.474 189.590 176.551 190.195 C 175.258 191.042,154.994 191.073,153.881 190.230 C 153.205 189.716,153.150 187.906,152.941 158.942 C 152.819 142.034,152.589 127.184,152.431 125.942 C 152.273 124.700,152.291 122.360,152.470 120.742 C 152.649 119.124,152.821 116.000,152.852 113.800 C 152.924 108.638,153.634 107.299,156.395 107.118 C 158.512 106.980,176.490 107.135,176.580 107.293 M106.534 111.200 C 106.534 112.850,106.605 113.525,106.691 112.700 C 106.778 111.875,106.778 110.525,106.691 109.700 C 106.605 108.875,106.534 109.550,106.534 111.200 M108.464 121.500 C 108.260 121.892,107.976 137.019,107.819 155.833 L 107.538 189.465 108.605 190.733 L 109.671 192.000 121.736 191.995 C 134.275 191.989,135.398 191.905,135.767 190.941 C 136.562 188.869,136.006 123.503,135.182 122.170 L 134.335 120.800 121.581 120.800 C 109.841 120.800,108.799 120.856,108.464 121.500 M134.386 122.774 C 134.834 123.611,135.000 189.013,134.557 190.167 C 134.240 190.994,110.100 191.140,109.280 190.320 C 108.644 189.684,108.580 123.958,109.214 122.774 C 109.610 122.035,110.175 122.000,121.800 122.000 C 133.425 122.000,133.990 122.035,134.386 122.774 M282.727 174.575 C 282.319 176.533,282.643 176.804,285.343 176.760 C 286.694 176.738,288.250 176.581,288.800 176.411 C 289.436 176.214,288.637 176.119,286.601 176.151 L 283.402 176.200 283.187 174.800 L 282.972 173.400 282.727 174.575 M291.600 175.600 C 290.216 175.891,290.214 175.895,291.400 175.941 C 292.060 175.967,292.870 175.813,293.200 175.600 C 293.866 175.170,293.645 175.170,291.600 175.600 M232.036 178.397 L 195.871 178.600 195.366 180.000 C 194.576 182.190,194.591 205.329,195.383 205.986 C 196.043 206.534,207.830 206.582,233.405 206.142 C 247.092 205.907,248.738 205.947,249.889 206.543 C 254.294 208.820,254.473 220.590,250.125 222.025 C 247.931 222.749,196.924 222.334,195.720 221.582 C 194.618 220.894,194.000 217.776,194.000 212.907 C 194.000 206.988,196.354 207.600,173.599 207.600 C 148.808 207.600,150.000 208.017,150.000 199.333 C 150.000 193.311,149.888 193.221,142.762 193.492 C 136.289 193.738,136.821 193.278,136.579 198.831 C 136.174 208.147,137.300 207.428,122.600 207.752 C 109.159 208.048,109.697 207.993,108.738 209.177 C 107.763 210.381,107.572 262.461,108.538 263.783 C 109.000 264.414,109.803 264.541,114.238 264.680 C 117.077 264.769,119.797 264.924,120.282 265.024 C 121.691 265.315,121.994 267.440,122.015 277.200 C 122.051 293.585,121.932 293.302,128.909 293.595 C 136.770 293.925,136.400 293.065,136.400 311.002 C 136.400 319.738,136.546 324.843,136.800 325.000 C 137.064 325.163,137.200 320.258,137.200 310.584 C 137.200 291.412,137.527 292.187,129.337 291.919 C 122.638 291.699,123.201 292.767,123.197 280.251 C 123.191 262.952,123.500 263.600,115.268 263.600 C 111.024 263.600,109.589 263.469,109.240 263.049 C 108.766 262.477,108.750 210.316,109.224 209.842 C 109.714 209.353,111.856 209.258,123.119 209.230 L 134.838 209.200 135.810 208.151 C 136.345 207.574,136.900 206.449,137.043 205.651 C 137.187 204.853,137.453 204.011,137.635 203.779 C 137.818 203.548,138.019 201.750,138.083 199.783 C 138.226 195.404,138.537 195.161,144.211 194.999 C 148.758 194.870,148.708 194.806,148.883 201.035 C 149.012 205.618,149.782 207.784,151.600 208.685 C 151.930 208.848,161.200 209.076,172.200 209.191 C 183.200 209.306,192.397 209.528,192.637 209.685 C 192.898 209.855,193.179 212.271,193.334 215.672 C 193.579 221.072,193.647 221.429,194.605 222.387 L 195.618 223.400 222.309 223.517 C 251.600 223.645,250.854 223.681,252.809 222.049 L 254.180 220.904 254.323 215.352 C 254.492 208.770,254.093 207.374,251.590 205.794 L 249.990 204.783 223.199 204.892 C 201.183 204.981,196.372 204.905,196.204 204.467 C 195.912 203.705,195.960 182.498,196.258 180.695 L 196.506 179.190 226.553 179.295 C 243.079 179.353,261.955 179.239,268.500 179.043 L 280.400 178.685 280.397 200.243 C 280.395 213.672,280.232 222.780,279.965 224.400 C 279.730 225.830,279.482 230.960,279.415 235.800 C 279.283 245.404,278.980 248.645,278.187 248.950 C 277.903 249.059,275.465 249.277,272.768 249.434 C 265.028 249.887,265.231 249.486,264.845 265.059 C 264.508 278.660,264.998 277.598,259.051 277.607 C 251.612 277.618,250.389 278.809,250.022 286.400 C 249.739 292.264,249.964 291.998,245.276 292.010 C 235.898 292.033,236.052 291.729,235.998 310.275 C 235.950 326.743,235.910 325.200,236.386 325.200 C 236.624 325.200,236.815 319.728,236.886 310.890 C 237.027 293.244,236.982 293.329,245.706 293.853 C 250.953 294.168,250.947 294.175,251.200 287.898 C 251.523 279.871,252.678 278.800,261.005 278.800 L 265.891 278.800 266.146 276.944 C 266.286 275.923,266.401 272.188,266.402 268.644 C 266.406 250.441,266.258 250.817,273.611 250.354 C 279.409 249.989,280.268 249.631,280.591 247.448 C 280.724 246.542,281.031 244.606,281.273 243.147 C 281.541 241.523,281.602 238.885,281.428 236.347 C 281.061 230.973,281.086 233.880,281.154 204.428 C 281.201 184.017,281.108 178.588,280.707 178.334 C 280.428 178.157,277.500 178.053,274.200 178.103 C 270.900 178.153,251.926 178.285,232.036 178.397 M297.332 184.260 C 297.464 185.069,297.768 185.926,298.009 186.165 C 298.326 186.479,298.380 186.424,298.206 185.967 C 298.051 185.557,298.185 185.333,298.588 185.333 C 299.073 185.333,299.168 185.652,299.014 186.767 C 298.867 187.841,298.896 187.949,299.129 187.200 C 299.432 186.231,299.456 186.225,299.909 187.000 C 300.367 187.786,300.376 187.784,300.388 186.933 C 300.395 186.456,300.507 185.736,300.638 185.333 C 300.835 184.723,300.803 184.701,300.444 185.200 C 300.206 185.530,299.994 185.710,299.973 185.600 C 299.754 184.492,299.799 183.676,300.068 183.842 C 300.251 183.955,300.400 183.857,300.400 183.624 C 300.400 183.391,300.085 183.187,299.700 183.170 C 299.315 183.154,298.571 183.061,298.047 182.965 C 297.151 182.799,297.108 182.878,297.332 184.260 M298.700 209.636 C 296.734 211.623,296.519 213.573,298.372 212.615 C 299.601 211.979,300.251 210.730,299.764 209.942 C 299.585 209.652,299.651 209.584,299.938 209.762 C 300.241 209.949,300.400 209.695,300.400 209.024 C 300.400 208.461,300.355 208.027,300.300 208.060 C 300.245 208.093,299.525 208.802,298.700 209.636 M266.006 283.490 C 266.000 284.730,266.050 284.770,267.300 284.533 C 269.050 284.199,269.089 284.112,267.752 283.523 C 267.118 283.244,266.468 282.833,266.306 282.608 C 266.144 282.384,266.009 282.781,266.006 283.490 M104.420 284.115 C 104.071 285.116,104.081 285.279,104.469 284.891 C 105.221 284.139,105.770 284.308,105.149 285.100 C 104.651 285.734,104.666 285.749,105.300 285.251 C 106.144 284.589,106.217 283.369,105.431 283.067 C 105.054 282.923,104.712 283.277,104.420 284.115 " stroke="none" fill="#ac745c" fill-rule="evenodd"></path><path id="path4" d="M197.700 86.293 C 197.425 86.389,197.200 86.975,197.200 87.596 L 197.200 88.725 202.100 88.506 C 205.618 88.348,207.090 88.133,207.320 87.743 C 207.699 87.099,208.400 87.021,208.400 87.624 C 208.400 87.857,208.220 87.936,208.000 87.800 C 207.780 87.664,207.600 87.805,207.600 88.113 C 207.600 88.540,208.221 88.665,210.200 88.639 C 213.003 88.602,213.298 88.444,211.900 87.730 C 208.877 86.186,208.660 86.151,203.600 86.398 C 200.850 86.533,198.510 86.525,198.400 86.381 C 198.290 86.238,197.975 86.198,197.700 86.293 M245.100 89.482 C 245.595 89.578,246.405 89.578,246.900 89.482 C 247.395 89.387,246.990 89.309,246.000 89.309 C 245.010 89.309,244.605 89.387,245.100 89.482 M257.891 89.489 C 258.601 89.577,259.861 89.579,260.691 89.492 C 261.521 89.405,260.940 89.333,259.400 89.331 C 257.860 89.329,257.181 89.400,257.891 89.489 M249.500 89.893 C 250.435 89.977,251.965 89.977,252.900 89.893 C 253.835 89.809,253.070 89.740,251.200 89.740 C 249.330 89.740,248.565 89.809,249.500 89.893 M182.800 98.151 C 182.800 98.522,183.078 98.932,183.417 99.062 C 184.388 99.434,184.482 98.998,183.602 98.202 C 182.870 97.540,182.800 97.535,182.800 98.151 M191.200 98.887 C 191.200 99.059,191.650 99.200,192.200 99.200 C 192.750 99.200,193.200 99.022,193.200 98.804 C 193.200 98.587,192.750 98.446,192.200 98.492 C 191.650 98.537,191.200 98.715,191.200 98.887 M225.600 98.985 C 224.494 99.399,224.343 99.568,224.879 99.790 C 225.313 99.969,225.882 99.768,226.455 99.235 C 227.479 98.281,227.479 98.281,225.600 98.985 M118.713 100.054 C 118.452 100.215,118.067 100.241,117.857 100.112 C 117.634 99.974,117.610 100.093,117.801 100.401 C 118.045 100.796,117.900 100.867,117.218 100.689 C 116.565 100.518,116.017 100.749,115.256 101.516 C 114.294 102.486,114.267 102.594,114.952 102.730 C 115.850 102.908,116.575 101.959,115.879 101.517 C 115.158 101.059,115.938 101.139,116.826 101.614 C 117.404 101.923,117.602 101.898,117.606 101.514 C 117.611 101.124,117.697 101.133,117.962 101.553 C 118.237 101.987,118.371 101.923,118.583 101.253 C 118.732 100.784,119.032 100.400,119.251 100.400 C 119.469 100.400,119.533 100.625,119.394 100.900 C 119.255 101.175,119.432 101.040,119.788 100.600 C 120.143 100.160,120.502 99.890,120.584 100.000 C 120.666 100.110,120.832 100.101,120.953 99.980 C 121.284 99.649,119.260 99.715,118.713 100.054 M130.000 100.278 C 130.550 100.672,131.090 101.004,131.200 101.017 C 132.008 101.108,133.200 101.724,133.200 102.051 C 133.200 102.269,133.020 102.336,132.800 102.200 C 132.580 102.064,132.400 102.143,132.400 102.376 C 132.400 102.609,132.985 102.794,133.700 102.787 C 134.880 102.776,134.934 102.724,134.285 102.232 C 133.892 101.934,133.622 101.467,133.685 101.195 C 133.748 100.923,133.550 100.609,133.244 100.498 C 132.907 100.375,132.797 100.472,132.965 100.744 C 133.141 101.028,133.016 101.104,132.623 100.954 C 132.283 100.823,132.107 100.551,132.232 100.348 C 132.357 100.146,132.311 100.006,132.130 100.037 C 131.948 100.069,131.710 100.059,131.600 100.014 C 131.490 99.970,130.860 99.850,130.200 99.748 L 129.000 99.562 130.000 100.278 M181.281 101.487 C 181.046 102.099,180.745 102.988,180.612 103.463 C 180.235 104.807,179.701 104.864,167.876 104.827 C 158.216 104.797,153.187 105.089,150.762 105.822 C 150.216 105.987,150.177 106.346,150.496 108.307 C 150.701 109.568,150.744 112.130,150.591 114.000 C 150.292 117.669,150.348 137.809,150.748 171.200 L 151.000 192.200 163.800 192.200 C 177.721 192.200,178.777 192.057,179.540 190.066 C 179.802 189.383,180.043 174.492,180.213 148.602 C 180.480 107.714,180.509 107.030,182.002 106.477 C 182.860 106.160,191.360 106.543,192.667 106.958 C 194.337 107.488,194.400 108.534,194.400 135.798 C 194.400 166.177,193.899 163.237,199.138 163.612 C 206.353 164.128,221.352 163.464,222.292 162.588 L 223.162 161.776 223.233 134.788 C 223.306 106.735,223.262 105.928,221.628 105.409 C 221.178 105.266,215.348 105.093,208.672 105.025 C 195.943 104.894,195.089 104.777,194.403 103.074 C 194.062 102.228,194.050 102.226,194.025 103.024 C 193.953 105.382,193.999 105.390,207.667 105.505 C 222.374 105.628,221.789 105.549,222.434 107.500 C 222.954 109.071,223.035 159.662,222.520 161.116 C 221.770 163.236,222.008 163.200,208.800 163.200 C 196.829 163.200,196.505 163.179,195.762 162.358 C 195.033 161.553,194.991 160.354,194.800 134.572 C 194.627 111.304,194.518 107.554,194.000 107.085 C 193.134 106.302,189.752 105.591,187.200 105.655 C 182.463 105.776,180.379 104.320,181.564 101.719 C 181.820 101.157,181.957 100.624,181.869 100.535 C 181.780 100.447,181.516 100.875,181.281 101.487 M268.279 103.507 C 267.963 105.083,268.536 105.029,252.105 105.014 C 239.944 105.002,237.975 105.082,237.760 105.600 C 237.479 106.279,237.584 130.218,237.954 149.362 L 238.200 162.123 239.705 162.903 C 243.411 164.825,264.908 164.015,266.275 161.903 C 266.454 161.626,266.690 149.404,266.800 134.742 C 267.036 103.316,266.520 106.172,271.878 106.618 C 277.105 107.053,278.072 106.743,277.922 104.678 C 277.824 103.333,277.648 103.000,277.033 103.000 C 276.242 103.000,275.793 104.625,276.469 105.042 C 277.199 105.494,275.567 106.400,274.025 106.400 C 272.887 106.400,272.184 106.157,271.707 105.600 C 271.330 105.160,270.694 104.800,270.292 104.800 C 269.854 104.800,269.352 104.303,269.039 103.558 L 268.517 102.316 268.279 103.507 M122.126 103.499 C 125.273 103.918,126.556 103.918,129.072 103.499 L 132.158 102.984 125.212 102.984 L 118.267 102.984 122.126 103.499 M106.520 105.600 C 106.520 106.810,106.595 107.305,106.687 106.700 C 106.778 106.095,106.778 105.105,106.687 104.500 C 106.595 103.895,106.520 104.390,106.520 105.600 M180.046 106.600 C 179.961 107.040,179.755 125.917,179.586 148.549 C 179.237 195.516,179.690 190.841,175.416 191.631 C 172.063 192.251,153.308 191.972,152.100 191.284 L 151.200 190.772 151.100 166.686 C 150.859 108.712,150.941 106.216,153.100 105.884 C 157.384 105.224,180.194 105.831,180.046 106.600 M265.923 105.858 C 266.480 106.007,266.763 106.319,266.638 106.645 C 266.524 106.942,266.386 116.773,266.332 128.492 C 266.277 140.212,266.168 152.523,266.088 155.852 L 265.944 161.904 264.371 162.613 C 262.054 163.658,242.137 163.615,240.181 162.562 L 238.907 161.876 238.651 150.638 C 237.734 110.460,237.799 106.176,239.326 105.879 C 240.732 105.606,264.909 105.587,265.923 105.858 M104.400 117.200 C 104.730 117.413,105.360 117.578,105.800 117.566 L 106.600 117.544 105.800 117.200 C 104.604 116.686,103.605 116.686,104.400 117.200 M107.846 120.986 C 107.264 121.874,107.200 125.354,107.200 156.064 L 107.200 190.156 108.275 191.278 L 109.350 192.400 122.175 192.406 C 129.229 192.409,135.238 192.563,135.530 192.748 C 136.624 193.442,136.002 204.809,134.800 206.074 L 133.800 207.127 121.731 207.273 C 107.971 207.441,108.380 207.336,107.625 210.859 C 107.045 213.564,107.040 261.422,107.620 263.085 C 108.242 264.869,109.428 265.200,115.205 265.200 C 121.910 265.200,121.308 263.821,121.630 279.924 C 121.778 287.296,122.054 293.014,122.274 293.234 C 122.866 293.826,127.025 294.395,130.800 294.400 C 136.219 294.408,136.000 293.706,136.000 311.125 C 136.000 318.866,136.135 325.200,136.300 325.200 C 136.735 325.201,136.271 296.314,135.824 295.600 C 134.893 294.112,133.819 293.801,128.909 293.595 C 121.932 293.302,122.051 293.585,122.015 277.200 C 121.994 267.440,121.691 265.315,120.282 265.024 C 119.797 264.924,117.077 264.769,114.238 264.680 C 109.803 264.541,109.000 264.414,108.538 263.783 C 107.572 262.461,107.763 210.381,108.738 209.177 C 109.697 207.993,109.159 208.048,122.600 207.752 C 137.300 207.428,136.174 208.147,136.579 198.831 C 136.821 193.278,136.289 193.738,142.762 193.492 C 149.888 193.221,150.000 193.311,150.000 199.333 C 150.000 208.017,148.808 207.600,173.599 207.600 C 196.354 207.600,194.000 206.988,194.000 212.907 C 194.000 217.776,194.618 220.894,195.720 221.582 C 196.924 222.334,247.931 222.749,250.125 222.025 C 254.473 220.590,254.294 208.820,249.889 206.543 C 248.738 205.947,247.092 205.907,233.405 206.142 C 207.556 206.587,196.045 206.535,195.367 205.973 C 194.578 205.318,194.689 181.298,195.490 179.500 L 195.980 178.400 228.890 178.399 C 246.991 178.399,265.940 178.295,271.000 178.170 C 276.169 178.041,280.422 178.098,280.707 178.298 C 281.107 178.581,281.201 184.033,281.154 204.428 C 281.086 233.880,281.061 230.973,281.428 236.347 C 281.602 238.885,281.541 241.523,281.273 243.147 C 281.031 244.606,280.724 246.542,280.591 247.448 C 280.268 249.631,279.409 249.989,273.611 250.354 C 266.258 250.817,266.406 250.441,266.402 268.644 C 266.401 272.188,266.286 275.923,266.146 276.944 L 265.891 278.800 261.005 278.800 C 252.678 278.800,251.523 279.871,251.200 287.898 C 250.947 294.175,250.953 294.168,245.706 293.853 C 241.603 293.607,239.260 294.156,237.820 295.701 C 236.930 296.655,236.256 325.583,237.137 325.039 C 237.350 324.907,237.449 319.118,237.374 311.136 C 237.212 293.849,236.988 294.277,246.110 294.431 C 251.595 294.523,252.000 294.699,252.000 296.987 C 252.000 298.846,252.530 299.310,253.520 298.320 C 253.893 297.947,254.000 297.947,254.000 298.320 C 254.000 298.611,254.280 298.524,254.710 298.100 C 255.389 297.431,255.376 297.391,254.419 297.198 C 253.737 297.060,253.304 296.613,253.062 295.798 C 252.866 295.139,252.515 294.240,252.282 293.800 C 252.036 293.335,251.891 290.931,251.937 288.057 L 252.016 283.115 253.434 281.384 L 254.852 279.654 258.726 279.527 C 264.104 279.351,265.759 279.598,265.910 280.600 C 266.219 282.645,266.449 283.120,267.232 283.324 C 268.048 283.538,268.051 283.520,267.355 282.750 C 266.567 281.879,266.562 281.458,267.137 261.468 C 267.450 250.588,266.945 251.423,273.456 251.022 C 278.487 250.712,280.712 250.003,280.989 248.620 C 281.079 248.169,281.364 246.583,281.623 245.095 C 281.881 243.607,282.252 242.292,282.446 242.171 C 283.049 241.799,282.864 235.052,282.216 233.753 C 281.719 232.756,281.645 228.505,281.716 205.091 C 281.790 180.887,281.728 177.599,281.200 177.593 C 252.199 177.249,196.596 177.714,195.786 178.307 C 194.499 179.250,194.399 180.184,194.077 194.397 L 193.800 206.593 192.600 206.849 C 191.940 206.990,183.170 207.127,173.111 207.153 C 149.292 207.214,150.123 207.530,150.628 198.609 C 150.979 192.404,151.272 192.652,143.548 192.612 C 140.167 192.595,137.172 192.437,136.893 192.262 C 136.490 192.009,136.392 184.918,136.414 157.584 C 136.442 121.906,136.467 122.467,134.770 120.770 C 134.042 120.042,133.299 120.000,121.246 120.000 L 108.492 120.000 107.846 120.986 M135.182 122.170 C 136.006 123.503,136.562 188.869,135.767 190.941 C 135.398 191.905,134.275 191.989,121.736 191.995 L 109.671 192.000 108.605 190.733 L 107.538 189.465 107.819 155.833 C 107.976 137.019,108.260 121.892,108.464 121.500 C 108.799 120.856,109.841 120.800,121.581 120.800 L 134.335 120.800 135.182 122.170 M282.243 174.633 C 281.333 177.003,284.971 178.259,288.600 176.828 C 289.040 176.655,287.986 176.602,286.258 176.712 C 282.842 176.928,282.229 176.620,282.660 174.903 C 282.918 173.875,282.610 173.675,282.243 174.633 M297.200 182.175 C 297.200 182.499,297.541 182.725,297.980 182.692 C 298.569 182.647,298.655 182.507,298.331 182.116 C 297.762 181.431,297.200 181.460,297.200 182.175 M250.470 207.894 C 253.369 211.001,253.107 220.202,250.081 221.582 C 249.052 222.052,198.928 221.870,196.567 221.388 C 195.047 221.078,193.557 209.116,194.874 207.794 C 195.559 207.106,201.068 206.932,224.419 206.862 L 249.438 206.787 250.470 207.894 M103.592 280.820 C 102.173 284.246,103.136 287.731,105.384 287.301 L 106.429 287.101 106.314 283.451 L 106.200 279.800 105.115 279.782 C 104.309 279.768,103.916 280.036,103.592 280.820 M106.000 283.994 C 106.000 284.383,105.685 284.949,105.300 285.251 C 104.666 285.749,104.651 285.734,105.149 285.100 C 105.770 284.308,105.221 284.139,104.469 284.891 C 104.081 285.279,104.071 285.116,104.420 284.115 C 104.890 282.766,106.000 282.681,106.000 283.994 M266.500 284.665 C 265.927 284.896,265.824 286.244,266.355 286.572 C 266.550 286.693,266.930 286.525,267.200 286.200 C 267.470 285.875,267.895 285.731,268.145 285.881 C 268.395 286.031,268.330 285.820,268.000 285.411 C 267.437 284.715,267.455 284.699,268.291 285.144 C 269.043 285.545,269.146 285.524,268.948 285.009 C 268.722 284.420,267.525 284.251,266.500 284.665 " stroke="none" fill="#8c544c" fill-rule="evenodd"></path></g></svg>