<svg id="svg" version="1.1" xmlns="http://www.w3.org/2000/svg" xmlns:xlink="http://www.w3.org/1999/xlink" width="400" height="244.30769230769232" viewBox="0, 0, 400,244.30769230769232"><g id="svgg"><path id="path0" d="M0.000 122.175 L 0.000 244.349 200.000 244.349 L 400.000 244.349 400.000 122.175 L 400.000 0.000 200.000 0.000 L 0.000 0.000 0.000 122.175 M307.257 53.696 C 307.344 55.141,307.437 56.597,307.464 56.933 L 307.514 57.544 310.690 57.584 L 313.867 57.624 313.932 64.170 C 314.008 71.792,313.610 71.049,317.626 71.065 L 320.709 71.078 320.772 80.988 L 320.836 90.898 324.006 90.898 L 327.176 90.898 327.241 84.239 L 327.306 77.581 330.544 77.513 L 333.781 77.445 333.781 67.682 L 333.781 57.920 334.331 57.792 C 334.633 57.722,336.145 57.637,337.691 57.604 L 340.501 57.544 340.569 54.307 L 340.637 51.069 347.187 51.069 C 350.789 51.069,353.785 51.117,353.844 51.176 C 353.902 51.235,353.860 52.627,353.749 54.269 C 353.504 57.897,353.243 57.658,357.446 57.663 L 360.707 57.666 360.530 66.280 C 360.433 71.017,360.285 77.037,360.201 79.658 L 360.049 84.423 357.182 84.492 L 354.314 84.560 354.249 91.211 L 354.184 97.862 350.703 97.930 L 347.221 97.998 347.255 105.138 C 347.274 109.065,347.356 116.457,347.438 121.564 L 347.587 130.849 350.886 130.971 L 354.184 131.093 354.247 147.573 C 354.286 157.661,354.221 164.142,354.080 164.283 C 353.953 164.410,352.440 164.526,350.718 164.541 L 347.587 164.569 347.522 171.075 L 347.457 177.580 344.032 177.756 L 340.607 177.933 340.676 181.025 L 340.745 184.117 337.511 184.185 L 334.277 184.254 334.212 192.127 L 334.148 200.000 330.483 200.000 C 328.467 200.000,322.034 199.917,316.188 199.815 C 310.342 199.713,298.473 199.514,289.813 199.373 C 281.153 199.232,273.961 199.050,273.831 198.970 C 273.681 198.878,273.652 196.194,273.751 191.675 L 273.908 184.525 272.995 184.394 C 272.494 184.322,271.203 184.196,270.128 184.114 C 266.998 183.875,267.318 184.615,267.318 177.620 L 267.318 171.521 266.691 171.283 C 266.347 171.152,265.151 171.045,264.034 171.045 C 262.917 171.045,261.660 170.976,261.240 170.892 L 260.476 170.739 260.476 137.538 L 260.476 104.337 263.659 104.337 L 266.842 104.337 267.080 103.710 C 267.211 103.366,267.318 101.826,267.318 100.290 L 267.318 97.495 277.214 97.495 L 287.111 97.495 287.153 96.701 C 287.176 96.265,287.203 94.808,287.214 93.464 L 287.233 91.020 290.454 90.952 L 293.675 90.884 293.804 89.608 C 293.875 88.906,293.994 85.583,294.068 82.224 C 294.142 78.864,294.274 74.863,294.360 73.333 L 294.517 70.552 292.952 70.702 C 292.091 70.785,290.480 70.923,289.371 71.010 L 287.355 71.169 287.328 66.189 C 287.312 63.450,287.285 60.440,287.266 59.499 L 287.233 57.789 290.409 57.666 L 293.586 57.544 293.650 54.612 C 293.685 52.999,293.764 51.542,293.826 51.374 C 293.911 51.140,295.476 51.069,300.519 51.069 L 307.100 51.069 307.257 53.696 " stroke="none" fill="#fbfbfb" fill-rule="evenodd"></path><path id="path1" d="M294.197 54.494 L 294.197 57.919 300.713 57.854 L 307.229 57.789 307.170 54.620 C 307.137 52.877,307.057 51.365,306.992 51.260 C 306.927 51.155,304.022 51.069,300.535 51.069 L 294.197 51.069 294.197 54.494 M340.730 51.388 C 340.662 51.563,340.638 53.075,340.676 54.748 L 340.745 57.789 347.221 57.857 L 353.696 57.925 353.696 54.497 L 353.696 51.069 347.274 51.069 C 342.216 51.069,340.826 51.137,340.730 51.388 M287.423 64.439 L 287.477 70.967 288.699 70.911 C 289.371 70.880,290.823 70.729,291.926 70.576 L 293.932 70.297 293.944 64.104 L 293.956 57.911 290.662 57.911 L 287.369 57.911 287.423 64.439 M307.392 64.508 L 307.392 71.106 310.690 71.106 L 313.989 71.106 313.989 78.829 C 313.989 85.560,314.036 86.534,314.352 86.413 C 314.651 86.298,314.665 86.354,314.428 86.733 C 314.204 87.092,314.212 87.279,314.466 87.585 C 314.745 87.922,314.733 87.955,314.378 87.819 C 314.011 87.678,313.973 87.847,314.038 89.340 L 314.111 91.020 317.262 91.076 C 318.995 91.107,320.457 91.176,320.510 91.229 C 320.564 91.283,320.630 95.766,320.658 101.192 L 320.709 111.057 324.007 111.057 L 327.306 111.057 327.360 105.803 C 327.390 102.914,327.418 99.921,327.421 99.152 L 327.428 97.754 330.666 97.686 L 333.903 97.618 333.903 87.721 L 333.903 77.825 330.666 77.757 L 327.428 77.689 327.428 84.416 L 327.428 91.142 324.007 91.142 L 320.586 91.142 320.577 85.828 C 320.572 82.905,320.576 78.400,320.586 75.816 L 320.605 71.120 317.236 71.052 L 313.867 70.984 313.802 64.447 L 313.737 57.911 310.564 57.911 L 307.392 57.911 307.392 64.508 M334.037 67.807 L 334.034 77.703 337.332 77.703 L 340.630 77.703 340.617 67.807 L 340.605 57.911 337.323 57.911 L 334.041 57.911 334.037 67.807 M354.062 71.106 L 354.062 84.301 356.995 84.301 L 359.927 84.301 359.927 81.933 C 359.927 79.825,360.315 64.270,360.482 59.682 L 360.547 57.911 357.305 57.911 L 354.062 57.911 354.062 71.106 M294.408 74.348 C 294.390 76.126,294.308 80.605,294.225 84.301 L 294.075 91.020 290.715 91.088 L 287.355 91.156 287.355 94.445 L 287.355 97.734 277.398 97.798 L 267.440 97.862 267.372 101.100 L 267.304 104.337 273.882 104.337 C 279.665 104.337,280.479 104.384,280.610 104.725 C 280.691 104.938,280.755 112.443,280.750 121.402 L 280.742 137.691 284.048 137.759 L 287.355 137.827 287.355 141.119 L 287.355 144.411 297.373 144.411 L 307.392 144.411 307.392 147.709 L 307.392 151.008 320.709 151.008 L 334.026 151.008 334.026 147.709 L 334.026 144.411 320.705 144.411 L 307.384 144.411 307.449 137.752 L 307.514 131.093 327.407 131.031 L 347.300 130.968 347.138 120.157 C 347.050 114.211,346.977 106.732,346.976 103.536 L 346.976 97.725 343.861 97.794 L 340.745 97.862 340.689 105.925 C 340.658 110.360,340.630 116.326,340.628 119.181 L 340.623 124.374 324.007 124.374 L 307.392 124.374 307.371 109.041 C 307.359 100.608,307.367 93.134,307.388 92.432 L 307.426 91.156 304.049 91.088 L 300.672 91.020 300.619 82.101 C 300.590 77.196,300.563 72.721,300.558 72.157 L 300.550 71.131 297.495 71.123 L 294.441 71.115 294.408 74.348 M347.465 91.027 L 347.465 97.754 350.697 97.686 L 353.929 97.618 353.995 91.509 C 354.080 83.516,354.448 84.301,350.613 84.301 L 347.465 84.301 347.465 91.027 M300.587 98.987 C 300.634 99.673,300.642 108.689,300.606 119.024 L 300.541 137.813 293.952 137.813 L 287.364 137.813 287.298 125.779 C 287.262 119.160,287.262 110.144,287.297 105.742 L 287.362 97.740 293.932 97.740 L 300.503 97.740 300.587 98.987 M263.348 104.520 L 260.721 104.598 260.721 137.699 L 260.721 170.800 263.103 170.803 C 264.414 170.804,265.898 170.874,266.402 170.957 L 267.318 171.109 267.318 157.760 L 267.318 144.411 270.067 144.378 C 271.579 144.360,274.575 144.333,276.726 144.317 L 280.635 144.288 280.703 141.055 L 280.772 137.821 274.106 137.756 L 267.440 137.691 267.378 121.211 C 267.312 104.112,267.322 104.264,266.341 104.393 C 266.139 104.419,264.792 104.476,263.348 104.520 M347.465 147.766 L 347.465 164.330 350.340 164.377 C 351.922 164.403,353.379 164.323,353.578 164.200 C 353.892 164.006,353.940 161.812,353.940 147.657 L 353.940 131.338 350.703 131.270 L 347.465 131.201 347.465 147.766 M340.623 169.273 C 340.634 171.927,340.638 174.896,340.632 175.870 L 340.623 177.642 338.962 177.642 C 337.995 177.642,337.177 177.765,337.007 177.935 C 336.779 178.163,336.714 178.160,336.714 177.922 C 336.714 177.707,336.335 177.638,335.431 177.690 L 334.148 177.764 334.089 180.880 L 334.030 183.995 337.327 183.995 L 340.623 183.995 340.623 180.819 L 340.623 177.642 343.922 177.642 L 347.221 177.642 347.221 171.045 L 347.221 164.447 343.913 164.447 L 340.605 164.447 340.623 169.273 M267.428 171.355 C 267.363 171.525,267.339 174.357,267.375 177.647 L 267.440 183.629 269.517 183.817 C 270.660 183.921,272.172 184.066,272.877 184.140 L 274.160 184.275 274.160 191.717 L 274.160 199.159 277.398 199.091 L 280.635 199.023 280.704 192.181 C 280.793 183.301,281.169 184.213,277.436 184.255 C 275.752 184.274,274.303 184.219,274.217 184.133 C 274.001 183.917,273.983 183.441,273.947 176.848 L 273.916 171.045 270.731 171.045 C 268.384 171.045,267.516 171.126,267.428 171.355 M327.435 192.073 L 327.423 199.878 330.728 199.878 L 334.033 199.878 333.968 192.120 L 333.903 184.362 330.676 184.315 L 327.448 184.269 327.435 192.073 " stroke="none" fill="#3b1226" fill-rule="evenodd"></path><path id="path2" d="M293.947 54.429 C 293.944 56.142,293.917 59.716,293.886 62.370 C 293.855 65.024,293.913 67.196,294.013 67.196 C 294.114 67.196,294.197 63.622,294.197 59.255 C 294.197 54.887,294.142 51.313,294.075 51.313 C 294.007 51.313,293.950 52.715,293.947 54.429 M307.255 64.386 C 307.255 68.149,307.289 69.654,307.330 67.731 C 307.371 65.808,307.371 62.729,307.330 60.889 C 307.288 59.050,307.255 60.623,307.255 64.386 M353.932 71.350 C 353.932 78.943,353.963 82.049,354.001 78.253 C 354.039 74.456,354.039 68.244,354.001 64.447 C 353.963 60.651,353.932 63.757,353.932 71.350 M340.731 68.418 C 340.731 72.382,340.765 74.004,340.806 72.022 C 340.847 70.040,340.847 66.796,340.806 64.814 C 340.765 62.831,340.731 64.453,340.731 68.418 M360.228 67.685 C 360.228 68.155,360.278 68.348,360.339 68.112 C 360.401 67.877,360.401 67.492,360.339 67.257 C 360.278 67.022,360.228 67.214,360.228 67.685 M294.031 68.907 C 294.031 69.780,294.075 70.137,294.129 69.701 C 294.183 69.264,294.183 68.549,294.129 68.112 C 294.075 67.676,294.031 68.033,294.031 68.907 M300.544 72.033 L 300.662 73.183 300.745 72.234 C 300.790 71.712,300.737 71.195,300.627 71.085 C 300.516 70.974,300.479 71.401,300.544 72.033 M313.816 81.185 C 313.794 86.662,313.851 91.143,313.943 91.143 C 314.036 91.143,314.074 90.358,314.029 89.398 C 313.957 87.891,313.999 87.673,314.331 87.800 C 314.652 87.924,314.668 87.873,314.428 87.488 C 314.204 87.129,314.212 86.942,314.466 86.636 C 314.744 86.301,314.734 86.266,314.394 86.397 C 314.032 86.535,313.990 85.847,313.926 78.889 C 313.860 71.662,313.854 71.792,313.816 81.185 M309.102 72.327 C 308.528 72.511,308.540 72.525,309.300 72.547 C 309.782 72.562,310.047 72.473,309.957 72.327 C 309.874 72.193,309.785 72.094,309.760 72.107 C 309.734 72.121,309.438 72.220,309.102 72.327 M312.561 72.923 C 312.607 73.147,312.755 73.325,312.889 73.318 C 313.252 73.299,313.185 72.752,312.805 72.625 C 312.599 72.557,312.508 72.668,312.561 72.923 M300.616 74.771 C 300.616 75.376,300.664 75.623,300.722 75.321 C 300.780 75.018,300.780 74.524,300.722 74.221 C 300.664 73.919,300.616 74.166,300.616 74.771 M300.666 83.445 L 300.672 91.020 304.032 91.031 L 307.392 91.042 304.097 90.963 L 300.801 90.884 300.731 83.377 L 300.661 75.870 300.666 83.445 M340.656 76.909 L 340.623 77.703 337.263 77.703 L 333.903 77.703 333.903 87.660 L 333.903 97.618 330.605 97.751 L 327.306 97.884 330.788 97.934 L 334.270 97.984 334.270 87.966 L 334.270 77.947 337.454 77.947 C 340.864 77.947,341.027 77.886,340.798 76.682 C 340.715 76.250,340.682 76.304,340.656 76.909 M345.999 84.178 C 345.999 84.380,346.109 84.545,346.243 84.545 C 346.378 84.545,346.487 84.380,346.487 84.178 C 346.487 83.977,346.378 83.812,346.243 83.812 C 346.109 83.812,345.999 83.977,345.999 84.178 M347.274 90.837 L 347.221 97.495 343.922 97.495 C 342.108 97.495,340.623 97.578,340.623 97.679 C 340.623 97.779,342.135 97.841,343.983 97.816 L 347.343 97.769 347.411 94.319 C 347.448 92.421,347.445 89.363,347.403 87.523 C 347.362 85.684,347.304 87.175,347.274 90.837 M345.289 96.123 C 345.072 96.385,345.098 96.495,345.402 96.612 C 346.054 96.862,346.243 96.786,346.243 96.274 C 346.243 95.712,345.702 95.626,345.289 96.123 M339.768 97.007 C 339.685 97.141,339.843 97.251,340.120 97.251 C 340.397 97.251,340.623 97.141,340.623 97.007 C 340.623 96.872,340.465 96.762,340.271 96.762 C 340.077 96.762,339.851 96.872,339.768 97.007 M287.355 97.923 C 287.354 98.024,289.306 98.078,291.692 98.044 C 299.896 97.925,300.658 97.842,294.013 97.791 C 290.351 97.763,287.355 97.822,287.355 97.923 M334.270 98.106 C 334.021 98.406,334.038 98.473,334.362 98.473 C 334.580 98.473,334.759 98.308,334.759 98.106 C 334.759 97.905,334.717 97.740,334.666 97.740 C 334.616 97.740,334.437 97.905,334.270 98.106 M287.463 105.803 C 287.463 109.902,287.497 111.579,287.538 109.530 C 287.579 107.480,287.579 104.126,287.538 102.077 C 287.497 100.027,287.463 101.704,287.463 105.803 M262.126 104.517 C 262.831 104.567,263.986 104.567,264.692 104.517 C 265.397 104.468,264.820 104.428,263.409 104.428 C 261.998 104.428,261.420 104.468,262.126 104.517 M267.011 104.537 C 267.246 104.686,267.329 107.936,267.379 118.889 L 267.444 133.048 267.504 118.819 L 267.563 104.590 274.099 104.520 L 280.635 104.451 273.671 104.398 C 269.841 104.369,266.844 104.431,267.011 104.537 M280.620 111.423 C 280.620 115.119,280.654 116.631,280.696 114.783 C 280.737 112.935,280.737 109.911,280.696 108.064 C 280.654 106.216,280.620 107.728,280.620 111.423 M287.414 125.798 L 287.355 137.850 279.719 137.748 C 275.519 137.691,274.038 137.685,276.427 137.735 L 280.772 137.824 280.703 141.056 L 280.635 144.288 277.434 144.411 C 275.096 144.500,274.111 144.632,273.782 144.899 C 272.926 145.597,268.474 150.155,268.110 150.707 L 267.745 151.261 274.190 151.195 L 280.635 151.130 280.704 147.879 L 280.772 144.627 283.796 144.702 C 285.460 144.743,286.770 144.695,286.707 144.594 C 286.644 144.493,286.764 144.411,286.974 144.411 C 287.300 144.411,287.355 143.937,287.355 141.112 L 287.355 137.813 293.956 137.813 L 300.556 137.813 300.456 131.184 C 300.339 123.461,300.660 124.138,297.115 124.133 C 293.368 124.128,293.655 123.528,293.750 131.165 L 293.830 137.569 290.717 137.569 L 287.604 137.569 287.538 125.657 L 287.472 113.745 287.414 125.798 M347.038 115.699 C 347.041 116.237,347.091 116.428,347.149 116.124 C 347.207 115.820,347.205 115.380,347.144 115.147 C 347.083 114.913,347.035 115.162,347.038 115.699 M307.819 117.872 C 307.457 118.147,307.392 118.612,307.392 120.893 C 307.392 123.231,307.448 123.612,307.819 123.763 C 308.212 123.923,308.207 123.954,307.758 124.139 C 307.489 124.249,314.801 124.339,324.007 124.337 C 333.213 124.336,340.608 124.280,340.440 124.212 C 340.272 124.144,340.134 123.981,340.134 123.850 C 340.134 123.719,340.244 123.680,340.379 123.763 C 340.867 124.065,340.686 118.244,340.195 117.872 C 339.565 117.393,308.450 117.393,307.819 117.872 M280.624 127.795 C 280.624 133.103,280.657 135.275,280.696 132.621 C 280.736 129.966,280.736 125.623,280.696 122.969 C 280.657 120.315,280.624 122.486,280.624 127.795 M347.221 130.726 C 347.221 130.884,340.319 130.991,327.367 131.032 L 307.514 131.096 327.367 131.156 L 347.221 131.216 347.221 144.361 L 347.221 157.506 344.003 157.566 C 339.996 157.642,340.290 157.383,340.436 160.694 C 340.550 163.285,340.528 163.470,340.102 163.470 C 339.746 163.470,339.423 164.093,339.707 164.233 C 339.740 164.250,341.500 164.332,343.617 164.416 L 347.466 164.569 347.465 147.526 C 347.465 138.152,347.410 130.483,347.343 130.483 C 347.276 130.483,347.221 130.592,347.221 130.726 M345.584 132.386 C 345.401 132.503,345.371 132.702,345.504 132.917 C 345.680 133.201,345.784 133.206,346.100 132.944 C 346.694 132.451,346.245 131.966,345.584 132.386 M267.417 136.347 L 267.440 137.691 268.847 137.711 L 270.253 137.731 268.920 137.638 L 267.587 137.545 267.491 136.274 L 267.394 135.003 267.417 136.347 M272.999 144.335 C 273.235 144.396,273.619 144.396,273.855 144.335 C 274.090 144.273,273.897 144.223,273.427 144.223 C 272.957 144.223,272.764 144.273,272.999 144.335 M307.222 144.322 C 307.062 144.388,306.991 144.600,307.065 144.793 C 307.139 144.986,307.090 145.144,306.955 145.144 C 306.821 145.144,306.648 144.979,306.570 144.777 C 306.448 144.460,305.147 144.411,296.919 144.411 L 287.408 144.411 287.275 144.960 C 286.998 146.108,287.100 150.973,287.406 151.162 C 287.645 151.309,304.326 151.315,306.659 151.168 C 307.146 151.138,307.251 151.229,307.179 151.619 C 307.130 151.888,307.037 153.289,306.974 154.732 L 306.860 157.357 307.508 157.603 C 308.309 157.908,333.510 157.937,333.989 157.633 C 334.241 157.474,334.299 156.791,334.238 154.720 C 334.194 153.233,334.210 151.964,334.275 151.900 C 334.339 151.836,334.337 150.097,334.270 148.036 L 334.148 144.288 320.831 144.245 C 313.506 144.222,307.382 144.256,307.222 144.322 M267.347 144.960 C 267.368 145.373,267.403 145.403,267.487 145.083 C 267.568 144.773,267.710 144.714,268.008 144.867 C 268.960 145.357,271.372 145.360,271.677 144.872 C 271.925 144.475,271.894 144.411,271.460 144.411 C 271.182 144.411,271.023 144.520,271.106 144.655 C 271.189 144.789,271.147 144.899,271.012 144.899 C 270.878 144.899,270.700 144.789,270.617 144.655 C 270.267 144.089,267.316 144.365,267.347 144.960 M334.026 147.709 L 334.026 151.008 320.709 151.008 L 307.392 151.008 307.392 147.709 L 307.392 144.411 320.709 144.411 L 334.026 144.411 334.026 147.709 M267.373 161.026 L 267.317 171.167 270.617 171.092 L 273.916 171.018 273.916 176.888 C 273.916 182.377,273.943 182.748,274.343 182.596 C 274.751 182.442,274.751 182.455,274.343 182.866 C 273.762 183.452,273.805 183.670,274.537 183.854 C 274.878 183.939,275.092 184.116,275.011 184.246 C 274.920 184.394,275.103 184.392,275.506 184.239 C 275.858 184.105,277.187 183.995,278.459 183.995 L 280.772 183.995 280.703 180.757 L 280.635 177.520 277.825 177.385 C 276.280 177.310,274.888 177.343,274.732 177.458 C 274.573 177.574,274.388 177.568,274.311 177.444 C 274.021 176.975,274.114 169.807,274.414 169.445 C 274.625 169.191,274.634 169.000,274.447 168.775 C 274.292 168.587,274.234 167.823,274.305 166.881 C 274.504 164.239,274.476 164.203,272.213 164.203 C 270.628 164.203,270.228 164.125,270.018 163.775 C 269.774 163.368,269.750 163.368,269.505 163.775 C 269.354 164.028,268.954 164.203,268.528 164.203 C 268.131 164.203,267.782 164.340,267.752 164.508 C 267.721 164.676,267.636 161.680,267.563 157.850 L 267.429 150.886 267.373 161.026 M309.652 151.425 C 309.349 151.483,308.855 151.483,308.552 151.425 C 308.250 151.366,308.497 151.319,309.102 151.319 C 309.707 151.319,309.954 151.366,309.652 151.425 M333.886 170.987 C 333.709 171.108,333.669 172.181,333.763 174.259 L 333.903 177.350 332.940 177.479 C 332.409 177.550,331.805 177.524,331.596 177.421 C 330.868 177.063,327.457 177.407,327.326 177.852 C 327.124 178.534,327.081 183.387,327.275 183.700 C 327.397 183.898,327.271 183.997,326.893 184.001 C 326.583 184.004,322.128 184.032,316.994 184.062 C 310.329 184.101,307.579 184.198,307.378 184.399 C 307.053 184.724,306.919 189.850,307.209 190.881 C 307.379 191.487,307.451 191.519,308.184 191.308 C 308.620 191.183,311.348 191.081,314.246 191.081 C 320.199 191.081,320.380 191.128,320.464 192.692 C 320.519 193.723,320.878 193.850,321.581 193.087 C 321.793 192.857,322.560 192.120,323.287 191.448 C 324.205 190.600,324.043 190.824,322.758 192.181 C 320.523 194.541,320.391 194.780,320.464 196.335 C 320.496 197.007,320.537 198.024,320.554 198.595 L 320.586 199.633 324.007 199.633 L 327.428 199.633 327.447 193.464 C 327.458 190.070,327.451 186.611,327.431 185.775 C 327.393 184.169,327.893 183.652,329.053 184.098 C 329.810 184.388,330.998 183.746,332.341 182.324 L 333.680 180.905 333.693 182.267 C 333.701 183.125,333.669 183.289,333.606 182.712 C 333.485 181.591,333.354 181.579,332.363 182.602 C 331.578 183.411,331.360 183.995,331.841 183.995 C 331.983 183.995,332.022 184.133,331.927 184.301 C 331.794 184.536,331.826 184.540,332.065 184.320 C 332.235 184.162,332.515 184.087,332.687 184.153 C 332.858 184.219,333.071 184.155,333.160 184.012 C 333.403 183.619,333.732 183.698,333.857 184.178 C 333.959 184.566,334.000 183.768,334.112 179.230 L 334.148 177.764 335.431 177.690 C 336.335 177.638,336.714 177.707,336.714 177.922 C 336.714 178.160,336.779 178.163,337.007 177.935 C 337.168 177.774,337.944 177.642,338.732 177.642 C 339.630 177.642,340.107 177.550,340.011 177.396 C 339.928 177.261,340.031 177.084,340.241 177.003 C 340.508 176.901,340.623 176.530,340.623 175.769 C 340.623 175.042,340.534 174.736,340.355 174.847 C 340.188 174.950,340.124 174.841,340.187 174.556 C 340.241 174.304,340.425 174.129,340.595 174.166 C 340.776 174.205,340.831 174.115,340.727 173.947 C 340.630 173.790,340.570 173.064,340.593 172.334 C 340.619 171.539,340.543 171.065,340.402 171.152 C 340.274 171.232,340.099 171.185,340.015 171.049 C 339.839 170.764,334.293 170.708,333.886 170.987 M338.761 176.266 C 338.240 176.853,337.626 177.391,337.396 177.462 C 337.167 177.533,337.552 177.057,338.252 176.404 C 339.834 174.928,339.987 174.886,338.761 176.266 M280.751 184.239 C 280.747 184.307,280.719 187.660,280.690 191.692 L 280.635 199.023 283.610 199.106 C 287.926 199.228,287.599 199.533,287.599 195.371 C 287.599 191.061,287.483 191.210,290.875 191.185 C 292.232 191.175,293.534 191.148,293.769 191.124 C 294.396 191.061,294.418 184.971,293.793 184.453 C 293.397 184.125,280.769 183.918,280.751 184.239 M327.184 187.737 C 327.184 187.779,326.834 188.136,326.405 188.531 L 325.627 189.249 326.222 188.468 C 326.728 187.805,327.184 187.458,327.184 187.737 " stroke="none" fill="#eca065" fill-rule="evenodd"></path><path id="path3" d="M353.640 53.024 C 353.640 53.629,353.688 53.876,353.746 53.574 C 353.804 53.271,353.804 52.776,353.746 52.474 C 353.688 52.172,353.640 52.419,353.640 53.024 M307.214 56.200 C 307.214 56.805,307.261 57.053,307.320 56.750 C 307.378 56.448,307.378 55.953,307.320 55.651 C 307.261 55.348,307.214 55.596,307.214 56.200 M290.531 57.666 L 287.233 57.810 290.456 57.861 C 292.397 57.891,293.739 57.814,293.830 57.666 C 293.913 57.532,293.947 57.445,293.906 57.472 C 293.864 57.500,292.346 57.587,290.531 57.666 M310.568 57.846 L 313.745 57.925 313.745 64.379 C 313.745 67.928,313.827 70.884,313.928 70.946 C 314.029 71.009,314.056 68.074,313.989 64.424 L 313.867 57.789 310.629 57.778 L 307.391 57.767 310.568 57.846 M338.707 57.834 C 341.045 57.954,340.822 56.841,340.781 68.188 L 340.745 77.825 337.508 77.893 L 334.270 77.962 334.270 87.966 L 334.270 97.970 330.910 98.038 L 327.550 98.106 327.476 99.271 L 327.401 100.435 333.913 106.924 C 337.495 110.493,340.375 113.464,340.313 113.525 C 340.251 113.587,337.391 110.830,333.956 107.399 C 330.521 103.968,327.655 101.161,327.587 101.161 C 327.519 101.161,327.452 103.381,327.438 106.096 C 327.425 108.810,327.384 111.060,327.348 111.096 C 327.312 111.133,325.776 111.176,323.935 111.193 C 322.094 111.210,320.526 111.324,320.450 111.446 C 320.375 111.568,320.182 111.664,320.022 111.660 C 319.862 111.656,319.924 111.541,320.159 111.404 C 320.553 111.174,320.586 110.489,320.586 102.579 L 320.586 94.003 319.083 92.573 L 317.580 91.142 315.644 91.142 L 313.707 91.142 313.787 89.190 L 313.867 87.238 310.629 90.507 L 307.392 93.776 307.392 105.898 C 307.392 117.135,307.469 118.640,308.002 117.776 C 308.101 117.618,313.702 117.532,324.007 117.532 C 334.313 117.532,339.914 117.618,340.012 117.776 C 340.447 118.480,340.650 117.850,340.622 115.883 C 340.605 114.707,340.598 110.089,340.607 105.620 L 340.623 97.495 343.922 97.495 L 347.221 97.495 347.221 90.898 L 347.221 84.301 350.214 84.262 C 351.860 84.241,353.345 84.229,353.513 84.235 C 353.753 84.244,353.818 81.460,353.818 71.098 L 353.818 57.950 348.652 57.937 C 345.811 57.930,343.434 57.871,343.369 57.806 C 343.304 57.740,343.035 57.930,342.771 58.227 C 342.425 58.616,342.328 58.652,342.421 58.355 C 342.507 58.082,342.410 57.940,342.136 57.934 C 341.909 57.928,340.623 57.882,339.279 57.831 C 337.935 57.780,337.678 57.781,338.707 57.834 M355.579 57.847 C 356.480 57.894,358.019 57.895,359.000 57.848 C 359.980 57.802,359.243 57.763,357.361 57.763 C 355.480 57.762,354.678 57.801,355.579 57.847 M294.146 62.620 C 294.071 67.684,294.145 68.027,295.253 67.727 C 295.364 67.697,295.385 67.786,295.300 67.924 C 294.864 68.629,298.164 71.139,299.440 71.072 L 300.672 71.007 300.716 72.339 C 300.740 73.072,300.768 77.547,300.777 82.285 L 300.794 90.898 304.093 90.898 L 307.392 90.898 307.392 92.118 L 307.392 93.339 310.446 90.282 C 313.055 87.671,314.192 86.288,313.250 86.870 C 313.112 86.955,313.030 86.926,313.067 86.805 C 313.104 86.685,310.412 83.857,307.086 80.521 C 303.760 77.185,301.038 74.359,301.038 74.241 C 301.038 74.123,303.834 76.833,307.252 80.263 C 310.669 83.693,313.528 86.500,313.605 86.500 C 313.682 86.500,313.745 83.036,313.745 78.803 L 313.745 71.106 310.446 71.106 L 307.147 71.106 307.147 64.541 L 307.147 57.977 300.916 57.930 C 295.923 57.892,294.685 57.946,294.682 58.202 C 294.679 58.435,294.615 58.423,294.448 58.158 C 294.298 57.921,294.193 59.479,294.146 62.620 M360.499 60.476 C 360.500 61.552,360.543 61.961,360.595 61.386 C 360.646 60.812,360.646 59.932,360.593 59.432 C 360.541 58.931,360.498 59.401,360.499 60.476 M342.086 59.337 C 341.895 59.401,341.547 59.683,341.312 59.965 C 341.076 60.246,340.880 60.343,340.876 60.181 C 340.864 59.748,341.875 58.878,342.175 59.064 C 342.337 59.164,342.304 59.264,342.086 59.337 M294.228 69.151 C 294.259 69.823,294.386 70.373,294.511 70.373 C 294.636 70.373,294.674 70.538,294.597 70.739 C 294.481 71.042,294.731 71.106,296.025 71.106 L 297.594 71.106 297.025 70.491 C 296.644 70.080,296.304 69.926,295.998 70.025 C 295.684 70.128,295.637 70.105,295.850 69.951 C 296.086 69.781,295.976 69.513,295.391 68.829 C 294.372 67.635,294.162 67.693,294.228 69.151 M360.262 70.984 C 360.263 72.462,360.303 73.035,360.352 72.257 C 360.401 71.480,360.400 70.270,360.351 69.570 C 360.302 68.869,360.262 69.505,360.262 70.984 M320.687 75.260 C 320.687 77.611,320.724 78.574,320.768 77.398 C 320.813 76.222,320.813 74.297,320.768 73.122 C 320.724 71.946,320.687 72.908,320.687 75.260 M309.957 72.327 C 310.047 72.473,309.782 72.562,309.300 72.547 C 308.540 72.525,308.528 72.511,309.102 72.327 C 309.438 72.220,309.734 72.121,309.760 72.107 C 309.785 72.094,309.874 72.193,309.957 72.327 M313.134 73.020 C 313.134 73.462,312.656 73.381,312.561 72.923 C 312.508 72.668,312.599 72.557,312.805 72.625 C 312.986 72.685,313.134 72.863,313.134 73.020 M294.275 77.459 C 294.275 78.332,294.319 78.690,294.373 78.253 C 294.428 77.816,294.428 77.101,294.373 76.665 C 294.319 76.228,294.275 76.585,294.275 77.459 M359.981 80.445 L 359.927 84.286 356.933 84.362 L 353.940 84.439 356.941 84.492 C 360.517 84.555,360.206 84.970,360.110 80.258 L 360.035 76.604 359.981 80.445 M320.534 85.790 L 320.605 91.142 319.496 91.142 C 318.130 91.142,318.124 91.247,319.426 92.393 L 320.464 93.308 320.623 92.042 C 320.848 90.251,320.868 80.687,320.648 80.551 C 320.547 80.488,320.496 82.846,320.534 85.790 M346.487 84.178 C 346.487 84.380,346.378 84.545,346.243 84.545 C 346.109 84.545,345.999 84.380,345.999 84.178 C 345.999 83.977,346.109 83.812,346.243 83.812 C 346.378 83.812,346.487 83.977,346.487 84.178 M294.046 87.844 C 294.046 89.456,294.086 90.084,294.134 89.239 C 294.181 88.394,294.181 87.074,294.133 86.307 C 294.084 85.539,294.045 86.231,294.046 87.844 M346.243 96.274 C 346.243 96.786,346.054 96.862,345.402 96.612 C 345.098 96.495,345.072 96.385,345.289 96.123 C 345.702 95.626,346.243 95.712,346.243 96.274 M340.623 97.007 C 340.623 97.141,340.397 97.251,340.120 97.251 C 339.843 97.251,339.685 97.141,339.768 97.007 C 339.851 96.872,340.077 96.762,340.271 96.762 C 340.465 96.762,340.623 96.872,340.623 97.007 M351.252 97.740 L 348.564 97.888 351.177 97.936 C 352.709 97.964,353.852 97.883,353.940 97.740 C 354.023 97.605,354.057 97.517,354.016 97.544 C 353.974 97.570,352.731 97.659,351.252 97.740 M334.759 98.106 C 334.759 98.308,334.580 98.473,334.362 98.473 C 334.038 98.473,334.021 98.406,334.270 98.106 C 334.437 97.905,334.616 97.740,334.666 97.740 C 334.717 97.740,334.759 97.905,334.759 98.106 M347.087 98.047 C 347.023 98.216,346.999 102.092,347.034 106.660 L 347.099 114.966 347.221 106.353 C 347.288 101.616,347.312 97.740,347.274 97.740 C 347.236 97.740,347.152 97.878,347.087 98.047 M287.546 98.179 C 287.259 98.899,287.757 112.922,288.057 112.561 C 288.241 112.338,288.508 112.156,288.649 112.156 C 288.791 112.156,288.651 112.428,288.339 112.760 C 288.028 113.092,287.690 113.312,287.589 113.250 C 287.489 113.188,287.343 113.301,287.266 113.502 C 287.189 113.703,287.232 113.867,287.363 113.867 C 287.512 113.867,287.599 118.236,287.599 125.718 L 287.599 137.569 290.715 137.569 L 293.830 137.569 293.750 131.165 C 293.655 123.528,293.368 124.128,297.115 124.133 C 300.335 124.138,300.265 124.088,300.367 126.458 C 300.414 127.529,300.474 122.221,300.501 114.661 C 300.528 107.101,300.487 100.916,300.410 100.916 C 300.334 100.916,297.788 103.392,294.753 106.418 C 291.718 109.443,289.186 111.869,289.125 111.809 C 289.064 111.748,291.618 109.097,294.798 105.917 L 300.582 100.134 300.497 99.120 L 300.412 98.106 294.013 98.057 C 290.494 98.029,287.583 98.084,287.546 98.179 M260.589 104.643 C 260.524 104.811,260.500 110.886,260.535 118.143 L 260.599 131.338 260.721 117.837 C 260.788 110.412,260.812 104.337,260.774 104.337 C 260.736 104.337,260.653 104.475,260.589 104.643 M267.517 119.670 C 267.475 127.969,267.478 135.391,267.524 136.164 L 267.608 137.569 268.860 137.569 L 270.112 137.569 268.837 136.278 C 267.790 135.218,267.563 134.835,267.563 134.133 L 267.563 133.279 269.640 135.324 C 272.018 137.665,271.921 137.505,271.045 137.645 C 270.675 137.704,270.922 137.712,271.594 137.662 C 272.266 137.613,274.548 137.572,276.665 137.571 L 280.513 137.569 280.513 121.075 L 280.513 104.582 274.053 104.582 L 267.593 104.582 267.517 119.670 M347.321 126.451 C 347.320 128.735,347.357 129.703,347.402 128.601 C 347.447 127.499,347.448 125.629,347.403 124.447 C 347.358 123.264,347.321 124.166,347.321 126.451 M348.981 131.152 C 349.883 131.199,351.422 131.199,352.402 131.153 C 353.382 131.106,352.645 131.068,350.764 131.068 C 348.882 131.067,348.080 131.105,348.981 131.152 M307.392 137.689 L 307.392 144.162 320.770 144.225 L 334.148 144.288 334.270 148.036 C 334.337 150.097,334.339 151.836,334.275 151.900 C 334.210 151.964,334.194 153.233,334.238 154.720 C 334.299 156.791,334.241 157.474,333.989 157.633 C 333.510 157.937,308.309 157.908,307.508 157.603 L 306.860 157.357 306.974 154.732 C 307.037 153.289,307.130 151.888,307.179 151.619 C 307.251 151.229,307.146 151.138,306.659 151.168 C 304.226 151.321,287.639 151.306,287.388 151.151 C 287.149 151.003,287.092 150.167,287.156 147.683 C 287.221 145.092,287.172 144.411,286.916 144.411 C 286.738 144.411,286.644 144.493,286.707 144.594 C 286.770 144.695,285.460 144.743,283.796 144.702 L 280.772 144.627 280.704 147.879 L 280.635 151.130 274.190 151.195 L 267.745 151.261 268.114 150.698 C 268.594 149.966,273.124 145.391,273.915 144.840 L 274.527 144.414 273.246 144.412 C 272.253 144.411,271.900 144.514,271.677 144.872 C 271.373 145.358,268.963 145.358,268.017 144.872 C 267.718 144.719,267.582 144.798,267.482 145.182 C 267.327 145.772,267.589 164.974,267.745 164.508 C 267.802 164.340,268.163 164.203,268.548 164.203 C 268.955 164.203,269.356 164.023,269.505 163.775 C 269.750 163.368,269.774 163.368,270.018 163.775 C 270.228 164.125,270.628 164.203,272.213 164.203 C 274.476 164.203,274.504 164.239,274.305 166.881 C 274.234 167.823,274.292 168.587,274.447 168.775 C 274.634 169.000,274.625 169.191,274.414 169.445 C 274.114 169.807,274.021 176.975,274.311 177.444 C 274.388 177.568,274.573 177.574,274.732 177.458 C 274.888 177.343,276.280 177.310,277.825 177.385 L 280.635 177.520 280.703 180.749 L 280.772 183.978 278.260 184.053 C 276.879 184.095,279.707 184.113,284.545 184.094 C 295.205 184.052,294.197 183.650,294.197 187.943 C 294.197 190.753,294.152 191.086,293.769 191.124 C 293.534 191.148,292.232 191.175,290.875 191.185 C 287.483 191.210,287.599 191.062,287.599 195.367 C 287.599 197.941,287.519 198.888,287.294 198.968 C 286.669 199.189,296.266 199.418,303.058 199.344 L 310.087 199.267 294.506 183.659 C 285.936 175.075,279.145 168.167,279.414 168.309 C 279.682 168.451,285.422 174.100,292.168 180.863 C 298.914 187.625,305.850 194.568,307.581 196.290 L 310.730 199.422 312.814 199.557 L 314.897 199.691 317.082 197.524 C 319.186 195.436,321.150 193.629,320.764 194.136 C 320.662 194.270,319.403 195.562,317.966 197.007 L 315.353 199.633 317.984 199.633 L 320.616 199.633 320.499 197.373 C 320.397 195.399,320.445 195.010,320.882 194.301 C 321.344 193.550,321.348 193.495,320.943 193.568 C 320.589 193.632,320.496 193.464,320.459 192.692 C 320.383 191.128,320.202 191.081,314.246 191.081 C 311.348 191.081,308.620 191.183,308.184 191.308 C 307.451 191.519,307.379 191.487,307.209 190.881 C 306.919 189.850,307.053 184.724,307.378 184.399 C 307.579 184.198,310.329 184.101,316.994 184.062 C 322.128 184.032,326.583 184.004,326.893 184.001 C 327.271 183.997,327.397 183.898,327.275 183.700 C 327.081 183.387,327.124 178.534,327.326 177.852 C 327.457 177.407,330.868 177.063,331.596 177.421 C 331.805 177.524,332.409 177.550,332.940 177.479 L 333.903 177.350 333.763 174.259 C 333.669 172.181,333.709 171.108,333.886 170.987 C 334.293 170.708,339.839 170.764,340.015 171.049 C 340.439 171.736,340.623 170.698,340.623 167.609 C 340.623 164.366,340.600 164.203,340.134 164.203 C 339.863 164.203,339.646 164.040,339.646 163.836 C 339.646 163.635,339.851 163.470,340.102 163.470 C 340.528 163.470,340.550 163.285,340.436 160.694 C 340.290 157.383,339.996 157.642,344.003 157.566 L 347.221 157.506 347.221 144.361 L 347.221 131.216 327.306 131.216 L 307.392 131.216 307.392 137.689 M346.348 132.410 C 346.422 132.529,346.310 132.769,346.100 132.944 C 345.784 133.206,345.680 133.201,345.504 132.917 C 345.371 132.702,345.401 132.503,345.584 132.386 C 345.971 132.140,346.186 132.147,346.348 132.410 M260.575 136.103 C 260.575 138.186,260.612 139.038,260.658 137.996 C 260.704 136.955,260.704 135.250,260.658 134.209 C 260.612 133.167,260.575 134.020,260.575 136.103 M306.562 144.757 C 306.644 144.969,306.818 145.144,306.949 145.144 C 307.271 145.144,307.069 144.588,306.704 144.466 C 306.526 144.407,306.471 144.519,306.562 144.757 M267.996 146.303 C 268.007 146.681,268.041 147.098,268.072 147.228 C 268.103 147.358,268.063 147.630,267.982 147.831 C 267.902 148.033,267.787 148.418,267.727 148.687 C 267.668 148.955,267.607 148.317,267.591 147.267 C 267.575 146.218,267.656 145.417,267.770 145.487 C 267.883 145.557,267.985 145.924,267.996 146.303 M260.557 149.908 C 260.558 150.849,260.602 151.204,260.655 150.697 C 260.708 150.190,260.707 149.420,260.653 148.987 C 260.599 148.553,260.556 148.968,260.557 149.908 M308.552 151.425 C 308.855 151.483,309.349 151.483,309.652 151.425 C 309.954 151.366,309.707 151.319,309.102 151.319 C 308.497 151.319,308.250 151.366,308.552 151.425 M260.583 164.325 C 260.583 167.954,260.617 169.472,260.659 167.699 C 260.701 165.927,260.701 162.958,260.659 161.102 C 260.618 159.246,260.584 160.696,260.583 164.325 M347.277 165.425 C 347.277 165.895,347.328 166.087,347.389 165.852 C 347.450 165.617,347.450 165.232,347.389 164.997 C 347.328 164.762,347.277 164.954,347.277 165.425 M347.325 172.144 C 347.325 175.235,347.360 176.466,347.403 174.879 C 347.446 173.293,347.446 170.764,347.403 169.259 C 347.360 167.755,347.325 169.053,347.325 172.144 M263.836 170.977 C 264.273 171.031,264.988 171.031,265.425 170.977 C 265.861 170.923,265.504 170.878,264.630 170.878 C 263.757 170.878,263.400 170.923,263.836 170.977 M340.023 177.136 C 339.856 177.407,340.241 177.698,340.467 177.472 C 340.699 177.240,340.656 176.909,340.393 176.909 C 340.267 176.909,340.100 177.011,340.023 177.136 M332.598 182.017 C 332.015 182.658,331.447 183.330,331.336 183.510 C 331.225 183.690,330.884 183.875,330.579 183.921 C 329.622 184.067,329.807 184.177,331.023 184.185 C 331.666 184.189,332.056 184.139,331.888 184.074 C 331.380 183.876,331.539 183.399,332.388 182.577 C 333.391 181.605,333.485 181.606,333.603 182.590 C 333.656 183.027,333.690 182.807,333.679 182.102 C 333.668 181.397,333.659 180.827,333.659 180.836 C 333.659 180.844,333.182 181.376,332.598 182.017 M271.658 184.168 C 271.962 184.226,272.402 184.224,272.636 184.163 C 272.869 184.102,272.621 184.054,272.083 184.057 C 271.546 184.059,271.354 184.109,271.658 184.168 M273.915 191.765 L 274.037 199.267 274.102 191.952 C 274.138 187.929,274.083 184.554,273.980 184.451 C 273.878 184.348,273.848 187.639,273.915 191.765 M323.079 191.604 C 322.367 192.289,321.824 192.889,321.872 192.937 C 321.920 192.985,322.554 192.422,323.280 191.686 C 324.944 190.002,324.804 189.945,323.079 191.604 M281.063 199.069 C 281.298 199.130,281.683 199.130,281.918 199.069 C 282.153 199.007,281.961 198.957,281.491 198.957 C 281.020 198.957,280.828 199.007,281.063 199.069 M330.429 200.058 C 331.071 200.108,332.061 200.108,332.628 200.056 C 333.195 200.005,332.670 199.964,331.460 199.965 C 330.250 199.965,329.786 200.007,330.429 200.058 " stroke="none" fill="#e8aa7d" fill-rule="evenodd"></path><path id="path4" d="M293.707 54.417 C 293.640 56.192,293.672 57.557,293.777 57.452 C 293.882 57.346,293.937 55.894,293.898 54.226 L 293.828 51.191 293.707 54.417 M307.209 54.368 C 307.212 54.905,307.262 55.096,307.320 54.793 C 307.378 54.489,307.376 54.049,307.315 53.815 C 307.254 53.581,307.206 53.830,307.209 54.368 M334.820 57.841 C 335.189 57.897,335.794 57.897,336.164 57.841 C 336.533 57.785,336.231 57.740,335.492 57.740 C 334.753 57.740,334.450 57.785,334.820 57.841 M341.402 59.386 C 341.108 59.660,340.867 59.990,340.867 60.119 C 340.867 60.514,341.055 60.387,341.600 59.621 C 342.210 58.765,342.148 58.691,341.402 59.386 M333.878 62.676 C 333.878 64.557,333.916 65.295,333.963 64.314 C 334.009 63.334,334.009 61.795,333.962 60.893 C 333.915 59.992,333.877 60.794,333.878 62.676 M360.496 63.897 C 360.497 64.838,360.541 65.193,360.594 64.686 C 360.647 64.179,360.646 63.409,360.592 62.976 C 360.538 62.542,360.494 62.957,360.496 63.897 M294.197 67.540 C 294.197 67.781,297.635 71.106,297.884 71.106 C 298.036 71.106,297.322 70.281,296.298 69.273 C 294.583 67.587,294.197 67.268,294.197 67.540 M333.875 70.861 C 333.875 72.541,333.915 73.228,333.962 72.389 C 334.010 71.549,334.010 70.174,333.962 69.334 C 333.915 68.494,333.875 69.181,333.875 70.861 M360.253 75.260 C 360.253 76.268,360.296 76.680,360.349 76.176 C 360.402 75.672,360.402 74.847,360.349 74.343 C 360.296 73.839,360.253 74.252,360.253 75.260 M294.263 75.015 C 294.263 75.620,294.311 75.867,294.369 75.565 C 294.427 75.263,294.427 74.768,294.369 74.465 C 294.311 74.163,294.263 74.411,294.263 75.015 M301.038 74.245 C 301.038 74.364,303.842 77.268,307.269 80.698 C 310.696 84.128,313.500 87.000,313.500 87.080 C 313.500 87.160,312.116 88.611,310.425 90.303 C 308.733 91.996,307.400 93.432,307.463 93.494 C 307.566 93.598,309.805 91.419,312.803 88.298 L 314.010 87.041 307.524 80.535 C 303.957 76.956,301.038 74.126,301.038 74.245 M333.838 75.504 C 333.838 75.974,333.888 76.167,333.950 75.932 C 334.011 75.696,334.011 75.312,333.950 75.076 C 333.888 74.841,333.838 75.034,333.838 75.504 M327.347 77.622 C 327.257 77.711,327.184 80.732,327.184 84.334 L 327.184 90.884 323.946 90.963 L 320.709 91.043 324.007 91.032 L 327.306 91.020 327.371 84.369 L 327.436 77.717 330.670 77.641 L 333.903 77.565 330.707 77.512 C 328.948 77.483,327.436 77.532,327.347 77.622 M294.039 82.957 C 294.038 84.166,294.080 84.692,294.131 84.125 C 294.182 83.558,294.183 82.568,294.132 81.926 C 294.082 81.283,294.040 81.747,294.039 82.957 M354.062 91.192 C 353.995 94.914,354.024 97.876,354.127 97.773 C 354.231 97.669,354.285 94.623,354.249 91.004 L 354.184 84.423 354.062 91.192 M293.736 90.219 L 293.708 90.884 290.470 90.952 L 287.233 91.020 287.217 92.731 L 287.201 94.441 287.289 92.792 L 287.376 91.142 290.550 91.142 C 293.888 91.142,294.153 91.051,293.879 89.996 C 293.803 89.704,293.755 89.779,293.736 90.219 M318.997 92.495 C 319.771 93.240,320.470 93.784,320.549 93.704 C 320.725 93.528,318.208 91.142,317.847 91.142 C 317.705 91.142,318.222 91.751,318.997 92.495 M287.167 96.762 C 287.167 97.233,287.218 97.425,287.279 97.190 C 287.340 96.955,287.340 96.570,287.279 96.335 C 287.218 96.100,287.167 96.292,287.167 96.762 M272.282 97.678 C 274.811 97.718,278.879 97.718,281.323 97.678 C 283.767 97.638,281.698 97.606,276.726 97.606 C 271.753 97.606,269.754 97.639,272.282 97.678 M294.601 106.080 C 291.530 109.172,289.066 111.750,289.125 111.809 C 289.232 111.915,300.550 100.751,300.550 100.540 C 300.550 100.160,299.617 101.029,294.601 106.080 M327.428 100.675 C 327.428 100.877,340.332 113.867,340.532 113.867 C 340.828 113.867,340.007 113.005,334.026 107.038 C 330.397 103.419,327.428 100.555,327.428 100.675 M287.964 112.647 C 287.311 113.368,287.661 113.482,288.333 112.766 C 288.648 112.431,288.794 112.156,288.657 112.156 C 288.520 112.156,288.208 112.377,287.964 112.647 M347.321 118.387 C 347.320 120.672,347.357 121.639,347.402 120.537 C 347.447 119.435,347.448 117.566,347.403 116.383 C 347.358 115.201,347.321 116.103,347.321 118.387 M354.178 147.709 C 354.178 156.848,354.208 160.551,354.245 155.938 C 354.283 151.325,354.283 143.848,354.245 139.322 C 354.208 134.796,354.178 138.571,354.178 147.709 M267.563 134.149 C 267.563 135.361,269.737 137.569,270.930 137.569 C 271.964 137.569,272.021 137.668,269.640 135.324 L 267.563 133.279 267.563 134.149 M260.577 144.044 C 260.578 146.463,260.614 147.420,260.659 146.170 C 260.703 144.920,260.703 142.941,260.658 141.771 C 260.614 140.602,260.577 141.625,260.577 144.044 M267.591 147.267 C 267.607 148.317,267.668 148.955,267.727 148.687 C 267.787 148.418,267.902 148.033,267.982 147.831 C 268.063 147.630,268.103 147.358,268.072 147.228 C 268.041 147.098,268.007 146.681,267.996 146.303 C 267.985 145.924,267.883 145.557,267.770 145.487 C 267.656 145.417,267.575 146.218,267.591 147.267 M260.572 154.673 C 260.572 156.487,260.611 157.230,260.658 156.323 C 260.705 155.415,260.705 153.931,260.658 153.024 C 260.611 152.117,260.572 152.859,260.572 154.673 M294.506 183.659 L 310.087 199.267 304.524 199.396 L 298.962 199.525 305.315 199.546 C 308.809 199.558,311.437 199.521,311.155 199.466 C 310.872 199.410,303.725 192.437,295.272 183.969 C 286.819 175.501,279.682 168.455,279.414 168.312 C 279.145 168.168,285.936 175.075,294.506 183.659 M261.884 170.973 C 262.188 171.032,262.628 171.029,262.862 170.968 C 263.095 170.907,262.847 170.859,262.309 170.862 C 261.772 170.865,261.580 170.915,261.884 170.973 M342.272 177.814 C 342.575 177.873,343.070 177.873,343.372 177.814 C 343.674 177.756,343.427 177.709,342.822 177.709 C 342.217 177.709,341.970 177.756,342.272 177.814 M340.670 182.216 L 340.623 183.981 337.385 184.057 L 334.148 184.133 337.393 184.186 C 341.108 184.247,340.936 184.356,340.805 182.015 L 340.717 180.452 340.670 182.216 M334.135 192.181 C 334.135 196.481,334.168 198.206,334.209 196.014 C 334.249 193.822,334.249 190.303,334.208 188.195 C 334.168 186.087,334.135 187.880,334.135 192.181 M273.774 194.013 C 273.774 196.768,273.810 197.896,273.854 196.518 C 273.897 195.141,273.897 192.886,273.854 191.509 C 273.810 190.131,273.774 191.258,273.774 194.013 M317.796 196.809 C 315.567 198.990,314.766 199.625,314.158 199.695 C 313.729 199.745,316.127 199.784,319.487 199.781 L 325.596 199.775 320.515 199.643 L 315.433 199.511 317.460 197.522 C 319.971 195.058,320.962 194.013,320.789 194.013 C 320.715 194.013,319.369 195.271,317.796 196.809 M284.484 199.327 C 285.794 199.371,287.938 199.371,289.249 199.327 C 290.559 199.283,289.487 199.247,286.866 199.247 C 284.246 199.247,283.173 199.283,284.484 199.327 M327.489 200.053 C 327.859 200.109,328.464 200.109,328.833 200.053 C 329.203 199.997,328.900 199.951,328.161 199.951 C 327.422 199.951,327.120 199.997,327.489 200.053 " stroke="none" fill="#f8c298" fill-rule="evenodd"></path></g></svg>